<svg width="24" height="24" viewBox="0 0 24 24" fill="none" xmlns="http://www.w3.org/2000/svg">
<path d="M3.32998 8.9101C3.32998 8.7201 3.39998 8.5301 3.54998 8.3801C3.83998 8.0901 4.31998 8.0901 4.60998 8.3801L11.13 14.9001C11.61 15.3801 12.39 15.3801 12.87 14.9001L19.39 8.3801C19.68 8.0901 20.16 8.0901 20.45 8.3801C20.74 8.6701 20.74 9.1501 20.45 9.4401L13.93 15.9601C13.42 16.4701 12.73 16.7601 12 16.7601C11.27 16.7601 10.58 16.4801 10.07 15.9601L3.54998 9.4401C3.40998 9.2901 3.32998 9.1001 3.32998 8.9101Z" fill="#535353"/>
</svg>
