<svg width="21" height="21" viewBox="0 0 21 21" fill="none" xmlns="http://www.w3.org/2000/svg">
<path d="M6.33325 20.5C5.78325 20.5 5.31242 20.3042 4.92075 19.9125C4.52909 19.5208 4.33325 19.05 4.33325 18.5C4.33325 17.95 4.52909 17.4792 4.92075 17.0875C5.31242 16.6958 5.78325 16.5 6.33325 16.5C6.88325 16.5 7.35409 16.6958 7.74575 17.0875C8.13742 17.4792 8.33325 17.95 8.33325 18.5C8.33325 19.05 8.13742 19.5208 7.74575 19.9125C7.35409 20.3042 6.88325 20.5 6.33325 20.5ZM16.3333 20.5C15.7833 20.5 15.3124 20.3042 14.9208 19.9125C14.5291 19.5208 14.3333 19.05 14.3333 18.5C14.3333 17.95 14.5291 17.4792 14.9208 17.0875C15.3124 16.6958 15.7833 16.5 16.3333 16.5C16.8833 16.5 17.3541 16.6958 17.7458 17.0875C18.1374 17.4792 18.3333 17.95 18.3333 18.5C18.3333 19.05 18.1374 19.5208 17.7458 19.9125C17.3541 20.3042 16.8833 20.5 16.3333 20.5ZM5.48325 4.5L7.88325 9.5H14.8833L17.6333 4.5H5.48325ZM4.53325 2.5H19.2833C19.6666 2.5 19.9583 2.67083 20.1583 3.0125C20.3583 3.35417 20.3666 3.7 20.1833 4.05L16.6333 10.45C16.4499 10.7833 16.2041 11.0417 15.8958 11.225C15.5874 11.4083 15.2499 11.5 14.8833 11.5H7.43325L6.33325 13.5H18.3333V15.5H6.33325C5.58325 15.5 5.01659 15.1708 4.63325 14.5125C4.24992 13.8542 4.23325 13.2 4.58325 12.55L5.93325 10.1L2.33325 2.5H0.333252V0.5H3.58325L4.53325 2.5Z" fill="#7D7D7D"/>
</svg>
