<svg width="25" height="25" viewBox="0 0 25 25" fill="none" xmlns="http://www.w3.org/2000/svg">
<path d="M6.66675 11.5L12.1667 2.5L17.6667 11.5H6.66675ZM17.6667 22.5C16.4167 22.5 15.3542 22.0625 14.4792 21.1875C13.6042 20.3125 13.1667 19.25 13.1667 18C13.1667 16.75 13.6042 15.6875 14.4792 14.8125C15.3542 13.9375 16.4167 13.5 17.6667 13.5C18.9167 13.5 19.9792 13.9375 20.8542 14.8125C21.7292 15.6875 22.1667 16.75 22.1667 18C22.1667 19.25 21.7292 20.3125 20.8542 21.1875C19.9792 22.0625 18.9167 22.5 17.6667 22.5ZM3.16675 22V14H11.1667V22H3.16675ZM17.6667 20.5C18.3667 20.5 18.9584 20.2583 19.4417 19.775C19.9251 19.2917 20.1667 18.7 20.1667 18C20.1667 17.3 19.9251 16.7083 19.4417 16.225C18.9584 15.7417 18.3667 15.5 17.6667 15.5C16.9667 15.5 16.3751 15.7417 15.8917 16.225C15.4084 16.7083 15.1667 17.3 15.1667 18C15.1667 18.7 15.4084 19.2917 15.8917 19.775C16.3751 20.2583 16.9667 20.5 17.6667 20.5ZM5.16675 20H9.16675V16H5.16675V20ZM10.2167 9.5H14.1167L12.1667 6.35L10.2167 9.5Z" fill="#7D7D7D"/>
</svg>
