<svg width="20" height="24" viewBox="0 0 20 24" fill="none" xmlns="http://www.w3.org/2000/svg">
<path d="M18.7515 15.8223C17.5147 15.0134 14.979 14.1363 11.5001 16.87V14.293C13.5345 14.2499 15.0161 12.9224 15.7196 10.8862C16.4475 8.77341 15.5374 4.55728 14.9299 2.23228C14.8814 2.05431 14.7902 1.8909 14.6641 1.75626C14.538 1.62162 14.3809 1.51985 14.2065 1.45981C14.0321 1.39976 13.8457 1.38327 13.6635 1.41176C13.4812 1.44025 13.3087 1.51287 13.161 1.62328C12.7142 1.96443 12.2737 2.31387 11.8399 2.6714C11.3276 2.01478 11.01 0.769404 10.0001 0.748779C8.97562 0.801279 8.76974 1.85728 8.15812 2.67103C7.72442 2.31296 7.28396 1.96314 6.83699 1.62178C6.68904 1.51189 6.51649 1.4398 6.33434 1.41177C6.15219 1.38374 5.96594 1.40061 5.7918 1.46093C5.61765 1.52124 5.46087 1.62318 5.33508 1.75786C5.20928 1.89255 5.11829 2.05592 5.06999 2.23378C4.46249 4.55878 3.55199 8.7749 4.27949 10.8847C4.98337 12.922 6.46499 14.251 8.50012 14.2942V16.8704C5.02012 14.1359 2.48512 15.0138 1.24762 15.823C1.10484 15.9186 0.999051 16.0601 0.947819 16.2241C0.896587 16.3881 0.902997 16.5646 0.965984 16.7245C1.02897 16.8843 1.14474 17.0178 1.29407 17.1027C1.4434 17.1876 1.61729 17.219 1.78687 17.1914C5.85712 16.4564 8.14912 20.1134 8.50012 20.7224V21.7499C8.50012 22.1477 8.65815 22.5293 8.93946 22.8106C9.22076 23.0919 9.60229 23.2499 10.0001 23.2499C10.3979 23.2499 10.7795 23.0919 11.0608 22.8106C11.3421 22.5293 11.5001 22.1477 11.5001 21.7499V20.7224C11.8504 20.113 14.1382 16.4568 18.2152 17.1918C18.3849 17.2189 18.5587 17.1872 18.7078 17.102C18.8569 17.0167 18.9724 16.883 19.035 16.723C19.0976 16.5631 19.1037 16.3865 19.0521 16.2227C19.0005 16.0588 18.8944 15.9175 18.7515 15.8223ZM13.6159 2.21953C13.6649 2.18265 13.7223 2.15837 13.7829 2.14881C13.8435 2.13925 13.9056 2.1447 13.9636 2.16468C14.0217 2.18467 14.0739 2.21858 14.1158 2.26345C14.1577 2.30831 14.1879 2.36276 14.2039 2.42203C14.676 4.22765 15.6986 8.64365 15.0105 10.642C13.3867 15.8215 6.00787 13.4545 7.91924 8.20041C8.60774 6.20053 12.1331 3.35165 13.6159 2.21953ZM9.68962 1.66603C9.72495 1.61671 9.77153 1.57653 9.8255 1.54881C9.87946 1.52109 9.93926 1.50663 9.99993 1.50663C10.0606 1.50663 10.1204 1.52109 10.1744 1.54881C10.2283 1.57653 10.2749 1.61671 10.3102 1.66603C10.6472 2.17353 10.9637 2.67128 11.2597 3.15928C10.8293 3.52749 10.4088 3.90713 9.99862 4.29778C9.58875 3.90759 9.16873 3.52821 8.73899 3.16003C9.04555 2.65546 9.36224 2.15735 9.68962 1.66603ZM7.03237 13.1924C3.34799 11.3099 5.09849 5.4374 5.79599 2.42353C5.81191 2.36433 5.84204 2.30991 5.88376 2.265C5.92549 2.22009 5.97755 2.18605 6.03543 2.16583C6.0933 2.14562 6.15524 2.13984 6.21585 2.149C6.27647 2.15816 6.33393 2.18199 6.38324 2.2184C7.45419 3.03368 8.48243 3.90358 9.46387 4.82465C8.42587 5.87915 7.54499 6.98578 7.21087 7.95628C6.40312 10.3023 7.06312 12.4154 8.84474 13.5348C8.22077 13.5867 7.59439 13.4684 7.03237 13.1924ZM1.65899 16.45C3.02212 15.5579 5.31149 15.0925 8.50012 17.845V19.4144C7.41412 18.0344 5.09249 15.8309 1.65899 16.45ZM10.0001 22.4999C9.80126 22.4997 9.61061 22.4206 9.47001 22.28C9.3294 22.1394 9.25031 21.9488 9.25012 21.7499V14.2432C9.50486 14.2043 9.75614 14.1453 10.0016 14.0669C10.2461 14.1449 10.4964 14.2036 10.7501 14.2424V21.7499C10.7499 21.9488 10.6708 22.1394 10.5302 22.28C10.3896 22.4206 10.199 22.4997 10.0001 22.4999ZM11.5001 19.4144V17.845C14.6887 15.0929 16.9777 15.5587 18.3469 16.4534C14.9081 15.832 12.5861 18.0344 11.5001 19.4144Z" fill="#D21E6A"/>
</svg>
