<svg xmlns="http://www.w3.org/2000/svg" viewBox="0 0 3250 2500" width="3250" height="2500"><g transform="translate(518.0 1579.0) rotate(0.0 1109.0 264.5) scale(0.9995781762069748 0.9982714241502426)"><svg width="2218.936" height="529.916" viewBox="0 0 2218.936 529.916"><path d="M126.505 77.386 13.998 527.416h74.988L201.467 77.488z" fill="#fff"/><path d="M88.986 529.916H13.997a2.5 2.5 0 0 1-2.426-3.106L124.079 76.78a2.5 2.5 0 0 1 2.426-1.894h.003l74.962.102a2.499 2.499 0 0 1 2.423 3.107L91.412 528.023a2.5 2.5 0 0 1-2.426 1.894zm-71.786-5h69.833L198.266 79.983l-69.81-.095L17.199 524.916z"/><path d="m2021.087 77.488 112.482 449.928h74.988L2096.153 77.909l-75.066-.421z" fill="#fff"/><path d="M2208.557 529.916h-74.988a2.502 2.502 0 0 1-2.426-1.894L2018.662 78.094a2.496 2.496 0 0 1 .46-2.15 2.497 2.497 0 0 1 1.966-.956h.014l75.066.421a2.5 2.5 0 0 1 2.412 1.894l112.403 449.507a2.499 2.499 0 0 1-2.426 3.106zm-73.036-5h69.834L2094.199 80.398l-69.905-.393 111.228 444.91z"/><path d="M2216.436 2.5H2.5l.051 74.988h2213.885z" fill="#fff"/><path d="M2216.436 79.988H2.551a2.5 2.5 0 0 1-2.5-2.499L0 2.501A2.5 2.5 0 0 1 2.5 0h2213.936a2.5 2.5 0 0 1 2.5 2.5v74.988a2.5 2.5 0 0 1-2.5 2.5zm-2211.387-5h2208.887V5H5.002z"/></svg></g><g transform="translate(517.0 385.0) rotate(0.0 604.0 861.5) scale(1.0001796680363941 1.0003367355232753)"><svg width="1207.783" height="1722.42" viewBox="0 0 1207.783 1722.42"><path d="M606.78 902.012c-203.336 83.066-392.678 12.04-436.589-204.418-29.849-147.143 60.487-275.771 153.089-393.805-12.555-92.931-11.708-169.354 32.955-219.916 70.169-79.432 181.791-96.816 251.56-23.124 244.379-189.893 356.474 139.42 193.923 291.193 106.615 223.488 45.264 451.943-194.938 550.07z" fill="#fbb348"/><path d="M446.416 937.52c-49.852 0-96.288-10.876-136.952-32.64-73.367-39.266-122.501-111.063-142.091-207.63-13.623-67.155-3.545-135.641 30.81-209.371 31.597-67.811 79.529-131.342 122.111-185.644-11.083-82.512-14.531-166.259 33.699-220.858 38.959-44.102 91.016-69.908 142.824-70.802 42.658-.728 80.889 15.155 110.86 45.98C656.16 19.276 701.89.252 743.628.002l.811-.002c36.862 0 69.186 15.075 93.525 43.63 61.703 72.392 60.252 219.076-33.573 308.042 27.68 58.477 44.022 117.292 48.575 174.831 4.602 58.157-2.975 113.277-22.52 163.828-36.651 94.797-113.794 168.504-223.089 213.153-55.532 22.686-110.019 34.035-160.941 34.035zm53.215-921.969c-.909 0-1.814.008-2.728.023-50.408.87-101.131 26.06-139.162 69.112-47.104 53.324-43.386 136.253-32.352 217.926a2.498 2.498 0 0 1-.511 1.878c-93.304 118.929-181.942 247.144-152.605 391.765 19.284 95.059 67.539 165.676 139.55 204.216 80.864 43.28 185.151 42.706 293.644-1.616l.945 2.314-.945-2.314C713.456 854.74 789.641 782.01 825.783 688.528c38.615-99.877 29.137-219.329-26.689-336.352a2.502 2.502 0 0 1 .551-2.904c43.167-40.304 69.703-96.084 74.721-157.063 4.612-56.056-10.418-110.388-40.206-145.337C810.629 19.265 779.303 4.809 743.658 5c-41.122.246-86.44 19.383-134.695 56.879a2.501 2.501 0 0 1-3.35-.255c-28.571-30.178-65.171-46.075-105.981-46.075z" fill="#161616"/><path d="M801.351 351.1s-17.686 13.796-32.322 25.571" fill="#6f5490"/><g fill="#161616"><path d="M769.03 379.172a2.501 2.501 0 0 1-1.569-4.448c14.484-11.652 32.175-25.457 32.352-25.595a2.5 2.5 0 1 1 3.076 3.943c-.177.138-17.839 13.92-32.293 25.548a2.494 2.494 0 0 1-1.565.552zm-440.672-31.396a2.501 2.501 0 0 1-2.477-2.181l-5.448-42.329a2.5 2.5 0 0 1 4.959-.639l5.448 42.329a2.5 2.5 0 0 1-2.482 2.82zm206.759-237.588a2.5 2.5 0 0 1-1.308-4.633c.475-.291 47.729-29.263 72.113-47.645a2.5 2.5 0 1 1 3.01 3.992c-24.578 18.527-72.035 47.625-72.512 47.916-.407.25-.858.368-1.304.368z"/></g><path d="M709.905 155.69c-.155 0-.313-.015-.47-.044-.26-.049-26.188-4.889-52.268-2.529a2.5 2.5 0 1 1-.451-4.979c26.81-2.427 52.568 2.39 53.653 2.596a2.5 2.5 0 0 1-.465 4.957z"/><path d="M487.049 672.87c-16.306 103.057-69.796 220.649-48.44 288.016 35.556 112.163 299.765 227.261 374.916 206.331 53.418-14.877 156.344-138.368 62.257-210.927-41.26-31.82-148.016-37.113-220.506-79.452 0 0 30.218-194.312 38.176-234.475 8.528-43.041 15.635-137.815-72.373-172.197L487.048 672.869z" fill="#ef4910"/><path d="M792.205 1172.156c-42.79.002-112.739-21.073-182.109-55.961-42.562-21.405-80.63-45.922-110.091-70.901-33.813-28.668-55.271-56.813-63.779-83.652-14.063-44.359 3.581-109.293 22.262-178.04 10.017-36.866 20.375-74.987 26.092-111.123a2.5 2.5 0 1 1 4.939.781c-5.761 36.404-16.154 74.658-26.207 111.652-18.481 68.016-35.938 132.261-22.32 175.218 15.449 48.734 79.506 105.406 171.351 151.597 68.732 34.567 137.741 55.494 179.492 55.497 8.103 0 15.171-.787 21.02-2.416 31.125-8.669 85.552-59.552 96.659-116.493 6.972-35.744-5.22-66.881-35.257-90.046-19.663-15.164-54.253-24.113-94.305-34.477-41.438-10.722-88.404-22.875-125.937-44.795a2.502 2.502 0 0 1-1.21-2.543c.303-1.943 30.318-194.822 38.195-234.576 7.835-39.548 16.618-135.219-70.831-169.383a2.5 2.5 0 0 1 1.82-4.657c90.967 35.538 81.995 134.229 73.915 175.011-7.463 37.664-34.902 213.472-37.896 232.682 36.695 21.039 82.616 32.921 123.195 43.42 40.583 10.501 75.632 19.57 96.104 35.358 31.638 24.398 44.471 57.236 37.111 94.962-5.067 25.975-19.705 53.628-41.217 77.867-19.232 21.669-41.291 37.552-59.008 42.486-6.122 1.705-13.529 2.53-21.99 2.53z"/><path d="m655.276 876.839-32.271-21.71" fill="#92acef"/><path d="M655.274 879.339c-.48 0-.965-.138-1.394-.426l-32.271-21.71a2.5 2.5 0 0 1 2.791-4.149l32.271 21.71a2.5 2.5 0 0 1-1.397 4.575z"/><path d="M888.967 1112.241c-10.922-13.604-33.91-20.075-55.068-30.026-65.055-30.598 3.876-60.335 45.329-41.125 30.188 13.989 53.91 35.004 69.543 56.032 33.364 44.878 25.454 63.313 16.164 67.988-15.183 7.641-39.058-6.894-75.968-52.868z" fill="#ffaac3"/><path d="M956.027 1169.451c-17.387 0-40.669-18.796-72.045-57.878-5.389-6.711-15.146-11.334-25.477-16.228a549.947 549.947 0 0 1-5.85-2.8 2.5 2.5 0 1 1 2.196-4.492c1.921.939 3.862 1.858 5.795 2.774 10.864 5.147 21.127 10.009 27.234 17.617 29.848 37.177 52.775 55.923 68.34 55.925 2.711 0 5.195-.568 7.457-1.706 3.168-1.594 5.449-4.737 6.424-8.85 1.718-7.253.873-24.434-24.088-58.01-17.832-23.986-43.134-44.37-71.244-57.396a2.5 2.5 0 1 1 2.101-4.536c28.854 13.371 54.835 34.306 73.154 58.949 24.86 33.44 27.285 52.253 24.941 62.146-1.32 5.575-4.531 9.895-9.041 12.164-3.068 1.544-6.361 2.322-9.898 2.322z"/><path d="M930.655 1122.451c-12.328-15.355-38.278-22.661-62.161-33.894-73.435-34.539 4.374-68.105 51.167-46.422 34.076 15.792 60.854 39.513 78.5 63.25 37.661 50.659 28.732 71.469 18.246 76.746-17.138 8.625-44.089-7.782-85.752-59.68z" fill="#ffaac3"/><path d="M1006.856 1186.867c-18.824.003-44.075-20.407-78.149-62.851-5.889-7.334-16.519-12.371-27.771-17.702-2.122-1.006-4.253-2.015-6.363-3.046a2.5 2.5 0 1 1 2.196-4.492 579.07 579.07 0 0 0 6.309 3.02c11.787 5.584 22.922 10.859 29.529 19.09 32.494 40.475 57.484 60.883 74.492 60.884 2.975 0 5.703-.624 8.187-1.874 3.504-1.763 6.024-5.232 7.1-9.768 1.877-7.922.966-26.675-26.228-63.253-19.409-26.107-46.948-48.294-77.545-62.474-.135-.063-12.567-5.866-22.325-8.303a2.5 2.5 0 1 1 1.211-4.851c10.235 2.556 22.701 8.376 23.227 8.622 31.33 14.519 59.548 37.258 79.444 64.022 26.98 36.292 29.619 56.678 27.081 67.39-1.421 5.997-4.872 10.643-9.717 13.081-3.307 1.664-6.861 2.503-10.676 2.503z"/><path d="M899.449 1097.521c-11.019 25.708-.617 55.433-28.202 48.546-27.586-6.887-107.427-39.577-88.437-93.97 18.991-54.393 159.389-12.957 188.264.35 28.876 13.307-60.605 19.366-71.625 45.074z" fill="#ffaac3"/><path d="M878.404 1149.568c-2.311 0-4.892-.359-7.763-1.076-18.18-4.539-69.251-23.521-87.011-56.413-7.023-13.007-8.094-26.736-3.182-40.807 3.505-10.037 11.063-17.581 22.464-22.422 47.281-20.075 147.79 11.455 169.207 21.325 3.187 1.468 7.396 3.867 7.154 7.727-.354 5.698-9.493 8.846-28.472 14.87-19.607 6.223-44.011 13.97-49.056 25.733-3.59 8.375-4.841 17.323-5.944 25.218-1.451 10.375-2.704 19.336-8.917 23.529-2.29 1.545-5.097 2.316-8.481 2.316zm-35.765-122.184c-14.467 0-27.598 1.749-37.772 6.069-10.05 4.267-16.677 10.817-19.697 19.468-4.43 12.688-3.468 25.064 2.86 36.783 16.9 31.299 66.238 49.546 83.822 53.937 5.621 1.404 9.625 1.229 12.236-.534 4.367-2.946 5.477-10.885 6.762-20.076 1.147-8.206 2.448-17.505 6.301-26.495 5.944-13.869 31.558-21.998 52.139-28.53 10.286-3.265 24.373-7.735 24.996-10.431-.018 0-.401-1.081-4.258-2.858-19.036-8.772-80.273-27.333-127.389-27.333z"/><path d="M982.069 1132.762c-12.328-15.355-38.278-22.661-62.161-33.894-73.435-34.538 4.374-68.105 51.167-46.422 34.076 15.792 60.854 39.513 78.5 63.25 37.661 50.659 27.691 75.166 17.205 80.443-17.138 8.625-43.049-11.48-84.712-63.377z" fill="#ffaac3"/><path d="M1058.619 1200.558c-17.63.003-42.002-20.766-78.501-66.23-5.89-7.336-16.522-12.373-27.778-17.706a587.695 587.695 0 0 1-6.356-3.042 2.5 2.5 0 1 1 2.196-4.492 568.25 568.25 0 0 0 6.302 3.016c11.79 5.585 22.927 10.861 29.536 19.094 41.045 51.125 66.224 70.466 81.639 62.708 3.484-1.753 6.184-5.714 7.404-10.867 2.117-8.939 1.621-29.38-25.492-65.852-19.408-26.106-46.947-48.293-77.545-62.474-.135-.063-12.567-5.866-22.325-8.303a2.5 2.5 0 1 1 1.211-4.85c10.235 2.556 22.701 8.376 23.227 8.622 31.331 14.52 59.549 37.258 79.444 64.022 26.905 36.19 29.177 58.035 26.346 69.987-1.563 6.593-5.215 11.762-10.021 14.181-2.878 1.449-5.963 2.186-9.284 2.187z"/><path d="M867.59 1070.833c-55.753-41.519-88.973 12.028-63.041 42.075 25.932 30.048 107.821 45.688 132.633 52.247 13.331 3.525 32.648 3.324 39.004-6.96 8.862-14.339-4.974-30.057-21.595-41.772-39.412-27.782-62.394-27.266-87.001-45.59z" fill="#ffaac3"/><path d="M953.048 1169.676c-5.941 0-11.826-.866-16.505-2.104-2.763-.73-6.462-1.614-10.746-2.638-33.556-8.019-112.138-26.797-139.83-68.894a2.5 2.5 0 1 1 4.178-2.748c26.604 40.441 103.835 58.897 136.814 66.779 4.314 1.031 8.041 1.921 10.861 2.667 13.591 3.594 30.911 2.762 36.238-5.857 8.869-14.35-9.293-30.228-20.908-38.415-21.172-14.925-37.588-21.608-52.072-27.505-3.152-1.283-6.129-2.495-9.1-3.766a2.5 2.5 0 1 1 1.967-4.597c2.93 1.253 5.887 2.457 9.019 3.732 14.731 5.998 31.429 12.795 53.067 28.049 22.537 15.886 30.45 31.913 22.281 45.13-4.706 7.613-15.067 10.166-25.265 10.166z"/><path d="M202.613 1195.423c206.341-8.444 451.53-36.986 603.59-49.708-36.322 107.997-61.995 163.282-99.493 333.534 69.83 95.77 184.602 99.279 329.052 15.656 0 0 33.723-162.297 49.674-358.675 12.613-155.285-49.192-238.452-235.049-283.629-88.179-21.434-245.269-20.9-245.269-20.9l-402.505 363.722z" fill="#ffaac3"/><path d="M956.348 1018.084c44.86 57.602 126.5 27.524 126.5 27.524-15.62-84.329-66.603-131.409-135.155-160.942 0 0-23.47 92.169 8.655 133.418z" fill="#ff6996"/><path d="M539.714 1170.788c0-87.573 84.818-314.649 153.738-336.736l-88.334-2.351-402.505 363.722 337.102-24.635z" fill="#92acef"/><path d="M1035.761 1501.018s13.569-50.202 30.638-203.29l-288.098-67.848-1.554.568c-22.747 64.989-45.874 137.601-72.5 258.489 69.83 95.77 187.065 95.703 331.514 12.081z" fill="#fff"/><path d="M847.71 1564.826c-1.931 0-3.847-.025-5.756-.077-57.88-1.549-104.891-26.561-139.728-74.339a2.5 2.5 0 0 1-.421-2.01c30.045-136.415 53.717-204.252 81.125-282.801 6.338-18.163 12.88-36.909 19.688-57.074-43.905 3.711-95.999 8.755-151.063 14.086-135.033 13.074-303.087 29.345-448.841 35.31a2.506 2.506 0 0 1-2.601-2.396 2.5 2.5 0 0 1 2.396-2.6c145.616-5.958 313.593-22.222 448.563-35.29 56.675-5.487 110.206-10.67 154.922-14.412a2.498 2.498 0 0 1 2.577 3.288c-7.254 21.571-14.201 41.48-20.92 60.735-27.283 78.188-50.854 145.732-80.721 281.125 33.808 45.869 79.275 69.883 135.156 71.379 55.08 1.467 119.477-18.823 191.439-60.33 2.933-14.947 34.329-177.648 49.415-363.394 6.484-79.831-7.035-137.449-42.549-181.33-36.663-45.302-97.228-76.972-190.599-99.667-86.87-21.116-243.086-20.833-244.669-20.83h-.009a2.5 2.5 0 0 1-.009-5c1.571-.007 158.406-.289 245.868 20.971 94.491 22.968 155.915 55.183 193.304 101.38 36.372 44.942 50.241 103.689 43.646 184.88-15.78 194.277-49.377 363.391-49.715 365.077a2.5 2.5 0 0 1-1.198 1.673c-70.688 40.922-134.341 61.643-189.304 61.644z"/><path d="M806.202 1148.215a2.5 2.5 0 0 1-2.321-3.428l22.76-56.952a2.5 2.5 0 0 1 4.643 1.855l-22.76 56.952a2.501 2.501 0 0 1-2.322 1.573zm260.2 152.013c-.189 0-.382-.021-.575-.067l-288.099-67.848a2.5 2.5 0 0 1-1.86-3.007 2.494 2.494 0 0 1 3.007-1.86l288.099 67.848a2.5 2.5 0 0 1-.572 4.934zm-526.688-126.94a2.5 2.5 0 0 1-2.5-2.5c0-43.568 20.584-121.49 51.222-193.899 16.455-38.891 59.554-130.892 104.254-145.218a2.5 2.5 0 0 1 1.526 4.762c-29.643 9.5-67.466 62.735-101.175 142.404-30.4 71.851-50.826 148.99-50.826 191.951a2.5 2.5 0 0 1-2.5 2.5z"/><path d="M704.247 1488.937c-70.453 113.68-60.055 230.981-60.055 230.981h560.874c7.575-196.044-185.482-221.027-185.482-221.027-118.316-17.473-207.789 49.984-315.338-9.954z" fill="#fff"/><path d="M646.784 1648.9c-5.431 34.053-2.592 71.019-2.592 71.019h560.874c2.788-36.921-7.502-71.019-7.502-71.019z" fill="#fbb348"/><path d="M1205.067 1722.418H644.193a2.5 2.5 0 0 1-2.49-2.279c-.026-.296-2.554-30.114 3.623-73.434 5.696-39.958 20.175-99.993 56.797-159.084a2.5 2.5 0 0 1 3.291-.895c66.111 34.839 122.396 25.739 181.985 16.105 41.299-6.677 84.002-13.583 132.551-6.413.444.057 49.331 6.668 96.579 37.374 27.811 18.074 49.654 40.834 64.925 67.647 19.072 33.491 27.857 73.385 26.111 118.575a2.5 2.5 0 0 1-2.498 2.403zm-558.537-5h556.122c2.419-79.109-27.414-139.438-88.696-179.335-46.303-30.145-94.214-36.65-94.692-36.713-47.829-7.062-90.143-.22-131.066 6.396-59.818 9.672-116.353 18.812-183.04-15.537-35.237 57.66-49.284 116.025-54.859 155.024-5.145 35.988-4.21 62.479-3.768 70.165z"/><path d="M1195.859 1651.4H648.16a2.5 2.5 0 1 1 0-5h547.698a2.5 2.5 0 1 1 0 5z"/><path d="M1093.173 1720.323a2.5 2.5 0 0 1-2.5-2.5v-67.415a2.5 2.5 0 1 1 5 0v67.415a2.5 2.5 0 0 1-2.5 2.5zm-20.449-.355a2.5 2.5 0 0 1-2.5-2.5v-67.423a2.5 2.5 0 1 1 5 0v67.423a2.5 2.5 0 0 1-2.5 2.5zm-64.723-.546a2.5 2.5 0 0 1-2.5-2.5v-67.414a2.5 2.5 0 1 1 5 0v67.414a2.5 2.5 0 0 1-2.5 2.5zm-75.405 2.633a2.5 2.5 0 0 1-2.5-2.5v-67.414a2.5 2.5 0 1 1 5 0v67.414a2.5 2.5 0 0 1-2.5 2.5zm-29.704 0a2.5 2.5 0 0 1-2.5-2.5v-67.414a2.5 2.5 0 1 1 5 0v67.414a2.5 2.5 0 0 1-2.5 2.5zm-97.297-2.006a2.5 2.5 0 0 1-2.5-2.5v-67.414a2.5 2.5 0 1 1 5 0v67.414a2.5 2.5 0 0 1-2.5 2.5zm-69.453-.081a2.5 2.5 0 0 1-2.5-2.5v-67.423a2.5 2.5 0 1 1 5 0v67.423a2.5 2.5 0 0 1-2.5 2.5zm345.416-139.054a2.5 2.5 0 0 1-2.427-3.107c8.548-34.198 40.132-40.366 40.449-40.424a2.501 2.501 0 0 1 .902 4.918c-1.167.218-28.752 5.716-36.5 36.719a2.501 2.501 0 0 1-2.424 1.894zm-47.307-27.164a2.5 2.5 0 0 1-2.427-3.106c8.565-34.27 40.232-39.113 40.552-39.158 1.363-.188 2.632.76 2.824 2.127s-.76 2.632-2.127 2.824c-1.162.168-28.668 4.49-36.397 35.419a2.502 2.502 0 0 1-2.424 1.895zm-58.476-14.447a2.5 2.5 0 0 1-2.427-3.107c8.548-34.188 40.131-40.365 40.449-40.424a2.5 2.5 0 0 1 .902 4.918c-1.166.218-28.752 5.724-36.5 36.719a2.501 2.501 0 0 1-2.424 1.894z"/><path d="M62.015 1075.603c12.286 56.229 69.589 118.423 127.265 119.604 89.234 1.82 424.768-.096 433.441-.203-106.996 88.857-246.737 243.27-282.419 335.81l390.874-18.134c37.004-50.921 318.415-316.122 255.265-491.995-58.001-169.229-549.599-165.55-549.599-165.55S18.978 878.58 62.016 1075.603z" fill="#ffaac3"/><path d="M584.488 1228.559c-101.583 87.203-179.885 184.057-244.186 302.256 47.79 66.263 235.388 9.991 390.874-18.135 67.827-82.16 87.023-100.64 137.547-164.186z" fill="#fff"/><path d="M62.015 1075.601c12.286 56.229 69.589 118.424 127.264 119.604 40.424.825 162.161 1.199 284.05 1.352l51.293-1.134c-22.816-133.501 57.513-282.893 126.488-326.654l-22.629-2.685-88.767-131.057-193.669-65.038C239.185 697.328 8.904 877.328 62.016 1075.6z" fill="#92acef"/><path d="M883.172 1054.788c31.2 66.008 107.191 52.221 107.191 52.221 15.453-81.481-21.095-138.725-86.889-170.383 0 0-42.645 70.893-20.302 118.162z" fill="#ff6996"/><path d="M442.49 1579.228c-49.898 0-84.111-15.479-104.296-47.068a2.504 2.504 0 0 1-.137-2.451c55.861-113.444 147.3-222.141 279.452-332.152-50.397.334-345.787 1.831-428.281.147-27.575-.564-56.823-14.726-82.357-39.877-23.848-23.49-41.088-53.266-47.299-81.692-24.547-112.377 27.587-204.546 75.645-262.077 54.863-65.68 135.348-121.793 210.044-146.443a2.496 2.496 0 0 1 3.157 1.591 2.499 2.499 0 0 1-1.591 3.157c-144.82 47.79-323.52 214.324-282.37 402.705 11.923 54.568 67.859 116.471 124.873 117.638 88.663 1.809 423.453-.057 435.146-.202h.031a2.502 2.502 0 0 1 1.592 4.428c-134.004 110.665-226.567 219.842-282.927 333.714 21.805 33.102 58.895 46.769 116.558 42.998 51.934-3.399 114.278-20.961 174.57-37.946 31.728-8.938 64.524-18.176 95.496-25.268 13.749-16.489 28.832-33.945 44.791-52.413 56.631-65.538 120.817-139.819 165.22-216.385 51.311-88.481 65.122-161.653 42.223-223.698-19.483-52.792-85.007-93.738-194.749-121.703-92.426-23.551-196.804-32.779-268.091-36.373a2.5 2.5 0 0 1-2.371-2.623 2.502 2.502 0 0 1 2.623-2.371c71.515 3.605 176.248 12.869 269.073 36.521 111.432 28.395 178.118 70.389 198.206 124.816 23.446 63.529 9.516 138.088-42.589 227.937-44.637 76.973-108.987 151.443-165.762 217.146-16.152 18.692-31.409 36.348-45.273 52.993a2.504 2.504 0 0 1-1.365.837c-31.09 7.087-64.127 16.394-96.075 25.394-60.541 17.054-123.143 34.689-175.601 38.122-6.057.396-11.913.595-17.565.595z"/><path d="M624.508 1197.504a2.498 2.498 0 0 1-1.617-4.406c21.175-17.951 72.822-60.313 73.342-60.738a2.5 2.5 0 1 1 3.17 3.867c-.519.426-52.135 42.761-73.279 60.686a2.491 2.491 0 0 1-1.615.593zm-99.888.42a2.5 2.5 0 0 1-2.451-2.023c-9.475-48.7-.359-116.979 24.383-182.647 25.666-68.123 63.293-121.557 103.23-146.603a2.5 2.5 0 0 1 2.656 4.236c-86.491 54.239-143.944 228.542-125.361 324.059a2.5 2.5 0 0 1-2.457 2.978z"/><path d="M362.699 1488.939c-70.453 113.68-60.055 230.981-60.055 230.981h560.874c7.575-196.043-185.482-221.027-185.482-221.027-118.316-17.473-196.995 73.725-315.338-9.954z" fill="#fff"/><path d="M305.236 1648.902c-5.431 34.053-2.592 71.019-2.592 71.019h560.874c2.788-36.921-7.502-71.019-7.502-71.019z" fill="#fbb348"/><path d="M863.518 1722.42H302.644a2.5 2.5 0 0 1-2.49-2.279c-.026-.296-2.554-30.114 3.623-73.434 5.696-39.958 20.175-99.993 56.797-159.085a2.499 2.499 0 0 1 3.568-.724c71.183 50.332 127.954 36.54 188.057 21.938 39.083-9.496 79.497-19.314 126.203-12.416.444.057 49.331 6.668 96.578 37.374 27.812 18.074 49.655 40.834 64.925 67.647 19.072 33.491 27.857 73.385 26.111 118.575a2.5 2.5 0 0 1-2.498 2.403zm-558.537-5h556.122c2.419-79.109-27.414-139.438-88.696-179.335-46.302-30.145-94.213-36.65-94.691-36.713-45.787-6.759-85.718 2.94-124.336 12.322-60.629 14.729-117.932 28.646-189.94-21.187-35.112 57.569-49.124 115.812-54.69 154.748-5.145 35.988-4.21 62.479-3.768 70.165z"/><path d="M854.31 1651.402H306.613a2.5 2.5 0 1 1 0-5H854.31a2.5 2.5 0 1 1 0 5z"/><path d="M792.375 1720.325a2.5 2.5 0 0 1-2.5-2.5v-67.414a2.5 2.5 0 1 1 5 0v67.414a2.5 2.5 0 0 1-2.5 2.5zm-61.199-.355a2.5 2.5 0 0 1-2.5-2.5v-67.423a2.5 2.5 0 1 1 5 0v67.423a2.5 2.5 0 0 1-2.5 2.5zm-109.946.355a2.5 2.5 0 0 1-2.5-2.5v-67.414a2.5 2.5 0 1 1 5 0v67.414a2.5 2.5 0 0 1-2.5 2.5zm-30.183 1.731a2.5 2.5 0 0 1-2.5-2.5v-67.414a2.5 2.5 0 1 1 5 0v67.414a2.5 2.5 0 0 1-2.5 2.5zm-29.703 0a2.5 2.5 0 0 1-2.5-2.5v-67.414a2.5 2.5 0 1 1 5 0v67.414a2.5 2.5 0 0 1-2.5 2.5zm-77.792-1.731a2.5 2.5 0 0 1-2.5-2.5v-67.414a2.5 2.5 0 1 1 5 0v67.414a2.5 2.5 0 0 1-2.5 2.5zm-88.959-.355a2.5 2.5 0 0 1-2.5-2.5v-67.423a2.5 2.5 0 1 1 5 0v67.423a2.5 2.5 0 0 1-2.5 2.5zm345.417-139.054a2.5 2.5 0 0 1-2.427-3.106c8.548-34.199 40.132-40.367 40.449-40.425a2.5 2.5 0 0 1 .902 4.918c-1.167.218-28.752 5.716-36.5 36.719a2.502 2.502 0 0 1-2.424 1.895zm-47.307-27.164a2.5 2.5 0 0 1-2.427-3.106c8.548-34.199 40.132-40.366 40.449-40.424a2.499 2.499 0 1 1 .902 4.918c-1.167.218-28.752 5.715-36.5 36.718a2.502 2.502 0 0 1-2.424 1.895zm-58.476-14.447a2.5 2.5 0 0 1-2.427-3.107c8.548-34.189 40.131-40.366 40.449-40.424a2.5 2.5 0 0 1 .902 4.918c-1.166.218-28.752 5.724-36.5 36.719a2.501 2.501 0 0 1-2.424 1.894z"/><path d="M630.311 1620.387a7.501 7.501 0 0 1-4.905-1.825c-7.395-6.391-27.581-21.205-55.669-21.205h-.379a84.138 84.138 0 0 0-40.528 10.854 7.498 7.498 0 0 1-5.422.768l-73.734-17.505a7.5 7.5 0 0 1-5.564-9.03 7.5 7.5 0 0 1 9.029-5.565l70.938 16.842a99.215 99.215 0 0 1 45.181-11.363c29.304-.185 50.923 12.809 62.734 22.185 45.481-13.752 55.935-17.043 57.834-17.705a7.502 7.502 0 0 1 10.303 4.893c.189.702 1.636 6.929-5.823 9.425-.674.226-1.688.552-3.042.98-2.614.826-6.543 2.044-11.784 3.652-10.409 3.194-26.222 7.997-47 14.276a7.513 7.513 0 0 1-2.169.321zm55.091-27.189zm4.076-6.192a6.779 6.779 0 0 0-1.363.894 7.403 7.403 0 0 1 1.363-.894z" fill="#fbb348"/><path d="M869.223 1350.994c-.322 0-.649-.063-.965-.195l-284.864-119.318a2.5 2.5 0 0 1 1.931-4.611l284.864 119.317a2.501 2.501 0 0 1-.967 4.807zM605.119 834.201a2.494 2.494 0 0 1-2.072-1.1l-65.403-96.674a2.5 2.5 0 1 1 4.141-2.802l65.403 96.674a2.5 2.5 0 0 1-2.068 3.902z"/><path d="M610.693 560.53c-2.155 50.198 8.725 129.11-40.242 176.667-74.638 72.488-231.129 2.261-244.814-89.48-15.659-104.975 90.565-153.678 121.64-215.138 16.576-34.337 55.854-60.992 113.316-34.987s70.621 55.589 61.479 90.495z" fill="#ef4910"/><path d="M490.186 769.709c-17.854 0-36.766-3.191-55.997-9.692-59.416-20.084-104.034-65.066-111.024-111.931-10.655-71.432 34.251-117.355 73.87-157.872 19.47-19.91 37.861-38.718 47.985-58.713 8.721-19.369 24.624-34.602 43.643-41.799 21.576-8.165 46.808-6.225 72.961 5.612 54.254 24.553 71.888 50.709 62.895 93.29a2.5 2.5 0 0 1-4.893-1.034c7.203-34.103-.333-60.669-60.063-87.701-24.916-11.276-48.821-13.175-69.13-5.49-17.803 6.737-32.7 21.033-40.875 39.225a3.254 3.254 0 0 1-.049.103c-10.468 20.702-29.135 39.792-48.898 60.003-38.806 39.684-82.789 84.664-72.5 153.639 6.721 45.058 49.994 88.432 107.681 107.932 52.234 17.657 101.925 10.226 132.918-19.876 39.484-38.347 39.306-97.843 39.161-145.65-.011-3.653-.021-7.237-.015-10.735l.338-33.708c.015-1.381 1.177-2.502 2.525-2.475a2.502 2.502 0 0 1 2.475 2.525l-.338 33.688c-.007 3.47.004 7.045.015 10.69.147 48.752.33 109.426-40.677 149.252-20.851 20.25-49.687 30.716-82.007 30.718z"/><path d="m622.207 359.428-36.667 91.203s-57.607 19.191-90.884-37.858l34.255-90.524 93.296 37.18z" fill="#ffaac3"/><path d="M565.272 455.687c-3.749 0-7.865-.237-12.236-.854-17.207-2.426-41.668-11.458-60.481-40.708a2.496 2.496 0 0 1-.235-2.237l34.255-90.524a2.5 2.5 0 0 1 3.264-1.437l93.296 37.18a2.5 2.5 0 0 1 1.393 3.255l-36.667 91.203a2.496 2.496 0 0 1-1.578 1.455c-.449.14-8.773 2.668-21.01 2.668zm-67.828-43.215c14.163 21.493 33.024 34.067 56.08 37.381 14.675 2.109 26.566-.4 30.161-1.307l35.268-87.723-88.604-35.31z"/><path d="M754.571 299.89c.379-30.768-24.418-56.022-55.39-56.403-30.967-.382-56.384 24.253-56.763 55.021-.379 30.767 24.424 56.022 55.39 56.403 30.972.382 56.383-24.254 56.763-55.021z" fill="#ffaac3"/><path d="M698.516 357.415c-.248 0-.49-.001-.739-.005-15.641-.192-30.273-6.427-41.201-17.555-10.933-11.133-16.849-25.828-16.657-41.379.191-15.551 6.468-30.096 17.671-40.956 11.02-10.681 25.512-16.539 40.876-16.539.249 0 .496.001.747.005 15.644.193 30.276 6.427 41.204 17.555 10.931 11.132 16.846 25.827 16.654 41.379-.394 31.852-26.594 57.495-58.555 57.495zm-.05-111.433c-14.059 0-27.315 5.357-37.396 15.129-10.24 9.926-15.977 23.218-16.151 37.427-.175 14.209 5.231 27.638 15.225 37.814 9.996 10.179 23.384 15.883 37.696 16.059.225.003.451.004.676.004 29.235 0 53.196-23.438 53.556-52.556.175-14.21-5.23-27.64-15.222-37.814-9.996-10.179-23.385-15.882-37.699-16.059a51.987 51.987 0 0 0-.684-.004z"/><path d="M668.613 332.913a2.5 2.5 0 0 1-2.451-3.007c.28-1.355 7.442-33.523 57.646-61.947a2.5 2.5 0 0 1 2.463 4.351c-48.248 27.317-55.147 58.299-55.212 58.609a2.5 2.5 0 0 1-2.445 1.994z"/><path d="M656.941 150.626s58.244 34.287 47.394 132.597c-3.979 47.638-36.401 108.906-112.604 104.631-59.834-3.229-92.95-52.41-92.95-52.41s-17.719 33.081-58.927 22.549c-33.975-7.716-50.045-38.431-46.94-63.918 7.654-62.832 78.481-66.985 95.776-32.149 100.772-32.91 105.655-107.829 168.251-111.3z" fill="#ffaac3"/><path d="M597.852 390.493c-1.098 0-2.199-.012-3.311-.038-32.427-.728-57.293-15.257-72.443-27.316-11.606-9.239-19.328-18.314-22.974-23.013-4.394 7.147-16.77 21.9-44.005 21.902a79.28 79.28 0 0 1-4.581-.135c-19.145-1.109-35.067-8.641-46.047-21.781-10.603-12.688-15.989-30.444-14.06-46.337 4.244-34.941 28.227-51.247 49.254-54.855 21.427-3.676 41.299 4.339 50.248 20.028 46.714-14.186 72.235-41.312 94.788-65.283 21.666-23.028 40.377-42.915 72.013-45.528.568-.047 1.13.1 1.6.416 23.54 15.809 35.747 41.283 41.843 59.87 7.505 22.886 10.167 48.88 7.303 71.315-2.726 21.358-10.073 51.789-29.595 75.475-19.302 23.42-46.218 35.28-80.033 35.281zm-99.069-57.544c.825 0 1.605.406 2.072 1.099.338.501 34.439 50.076 93.798 51.409 81.812 1.844 102.697-65.844 107.868-106.353 5.371-42.082-9.03-100.294-46.248-125.908-29.205 2.756-47.155 21.836-67.909 43.894-23.301 24.766-49.712 52.837-98.973 67.236a2.5 2.5 0 0 1-2.94-1.288c-7.293-14.688-26.178-22.577-45.918-19.191-19.255 3.305-41.224 18.314-45.138 50.531-1.769 14.568 3.188 30.864 12.934 42.529 10.071 12.054 24.768 18.968 42.499 19.995 35.677 2.064 45.232-21.358 45.621-22.356a2.508 2.508 0 0 1 2.334-1.597z"/><path d="M453.281 316.79a2.5 2.5 0 0 1-2.45-3.017c2.211-10.463 14.805-12.888 15.34-12.986a2.5 2.5 0 0 1 .906 4.917c-.165.032-9.845 1.959-11.354 9.103a2.501 2.501 0 0 1-2.443 1.984z"/><path d="M474.825 321.86a2.5 2.5 0 0 1-2.455-2.047c-.052-.268-4.803-23.403-39.889-44.452a2.5 2.5 0 1 1 2.573-4.288c37.236 22.339 42.048 46.81 42.234 47.841a2.5 2.5 0 0 1-2.463 2.946z"/><path d="M570.448 307.335c.179-14.481-11.413-26.361-25.894-26.54s-26.356 11.413-26.535 25.894 11.407 26.361 25.888 26.54c14.482.179 26.361-11.413 26.54-25.894zm120.065 1.279c.177-14.37-11.327-26.16-25.695-26.337-14.363-.177-26.154 11.326-26.331 25.695-.177 14.371 11.327 26.16 25.69 26.338 14.368.178 26.16-11.326 26.337-25.696z" fill="#ff6996"/><path d="M602.338 288.01a2.5 2.5 0 0 1-1.712-4.322c8.495-7.981 18.201-3.754 22.147-.403a2.5 2.5 0 0 1-3.23 3.817c-.833-.696-8.286-6.542-15.494.23a2.493 2.493 0 0 1-1.712.678zm7.681 44.897c-6.505 0-12.676-2.915-18.353-8.672a2.5 2.5 0 0 1 3.56-3.511c4.828 4.897 9.948 7.316 15.22 7.178 8.886-.225 15.556-7.598 15.622-7.673a2.5 2.5 0 0 1 3.744 3.314c-.326.37-8.116 9.052-19.191 9.357-.201.006-.402.008-.603.008zm28.96-68.038a2.5 2.5 0 0 1-1.903-4.12c.419-.493 10.429-12.07 24.925-12.736 8.76-.404 17.199 3.271 25.027 10.923a2.5 2.5 0 1 1-3.496 3.575c-6.796-6.644-13.981-9.84-21.302-9.503-12.35.567-21.257 10.877-21.346 10.981a2.495 2.495 0 0 1-1.905.88zm-103.699 2.396a2.5 2.5 0 0 1-1.903-4.12c.419-.493 10.429-12.07 24.925-12.736 8.771-.406 17.2 3.271 25.028 10.922a2.5 2.5 0 1 1-3.496 3.575c-6.796-6.643-13.962-9.838-21.303-9.503-12.35.568-21.257 10.877-21.346 10.981a2.495 2.495 0 0 1-1.905.88z"/><path d="M440.035 588.159c-26.061 14.091-90.336 97.776-109.655 128.998-51.529 83.275-97.458 140.736-219.397 149.389C53.88 870.598.504 844.953 3.617 771.937c4.122-96.688 69.453-145.1 118.937-168.837 72.039-34.556 82.222-41.354 112.502-76.349 39.42-45.56 117.589-138.685 214.534-99.636 51.873 15.732 16.506 146.953-9.554 161.044z" fill="#ef4910"/><path d="M99.512 869.459c-30.661 0-56.603-8.99-73.899-25.806C8.055 826.585-.185 802.42 1.118 771.83c4.074-95.558 67.697-145.726 120.354-170.984 72.285-34.675 81.681-41.044 111.692-75.731 1.684-1.946 3.43-3.978 5.239-6.083 20.53-23.892 48.647-56.612 84.121-78.972 42.232-26.621 85.288-31.761 127.965-15.276.104.04.204.087.302.14.494.271 12.17 6.717 17.765 13.537a2.501 2.501 0 0 1-3.866 3.171c-4.686-5.711-14.852-11.511-16.164-12.247-95.056-36.595-164.705 44.465-206.331 92.906-1.813 2.109-3.563 4.146-5.25 6.096-30.323 35.046-40.913 42.239-113.312 76.967-51.422 24.667-113.552 73.609-117.52 166.689-1.241 29.105 6.491 51.992 22.983 68.024 18.41 17.898 47.413 26.417 81.708 23.984 122.713-8.708 167.528-66.918 217.443-148.203 21.91-35.679 82.229-113.234 110.52-129.845a2.5 2.5 0 1 1 2.531 4.311c-25.981 15.255-84.416 88.458-108.789 128.15-27.746 45.182-51.439 78.241-83.784 103.409-36.087 28.08-79.8 43.066-137.567 47.166-3.948.28-7.837.419-11.647.419z"/><path d="M9.171 733.197c-15.965 76.782-5.685 121.932 72.974 152.688 113.654 39.36 194.056-16.986 307.813-15.188 90.898 1.437 108.541-108.316 91.058-167.464-21.827-73.843-96.407-68.432-167.334-47.549-44.06 12.973-123.33 4.928-198.372 25.16L9.172 733.197z" fill="#ef4910"/><path d="M167.503 901.866c-26.521 0-54.678-3.667-86.111-13.598-37.087-11.91-61.815-32.781-73.512-62.036-10.587-26.48-10.491-59.83.282-99.123a2.5 2.5 0 0 1 4.822 1.322c-22.176 80.877 1.35 133.051 69.925 155.073 73.106 23.098 128.535 11.664 187.217-.441 37.104-7.653 75.467-15.57 119.87-14.866 29.053.443 52.235-10.491 68.986-32.544 27.385-36.052 30.556-94.769 19.636-131.712-9.755-33.001-30.456-51.824-63.286-57.542-25.902-4.511-58.921-.69-100.944 11.684-19.994 5.887-46.572 7.471-77.347 9.305-37.439 2.231-79.874 4.761-121.082 15.871-1.328.357-2.705-.43-3.064-1.763s.431-2.705 1.764-3.065c41.7-11.243 84.406-13.788 122.085-16.034 30.47-1.816 56.784-3.385 76.232-9.111 42.777-12.595 76.538-16.459 103.215-11.813 34.402 5.992 57.02 26.533 67.223 61.051 11.55 39.076 8.234 98.391-20.449 136.153-17.178 22.615-41.807 34.531-71.3 34.533-.582 0-1.161-.005-1.746-.014-43.865-.687-81.942 7.165-118.781 14.764-34.254 7.066-67.417 13.906-103.634 13.906z"/><path d="M435.858 708.854c49.134-52.931 123.365-90.595 144.399-83.389 21.033 7.206-11.036 124.107-36.64 142.899-27.044 19.849-62.369 39.017-94.201 27.826-35.428-12.456-46.865-51.455-13.558-87.336z" fill="#ffaac3"/><path d="M469.431 802.042c-7.288 0-14.227-1.167-20.845-3.494-17.501-6.153-29.79-18.791-33.714-34.672-4.542-18.379 2.26-38.524 19.153-56.723 48.763-52.532 124.164-91.885 147.041-84.054 4.155 1.424 6.816 5.776 7.91 12.936 4.708 30.825-21.164 117.67-43.881 134.344-28.862 21.182-53.83 31.663-75.665 31.663zm-33.573-93.188 1.832 1.701c-15.708 16.923-22.088 35.434-17.964 52.123 3.513 14.215 14.637 25.57 30.519 31.154 24.773 8.709 54.829-.281 91.893-27.483 19.699-14.458 46.717-98.004 41.897-129.558-.544-3.557-1.78-7.999-4.589-8.96-19.019-6.521-91.608 28.701-141.756 82.725l-1.832-1.701z"/><path d="M551.319 630.275c35.19-11.887 77.482-8.55 99.099 21.432 16.981 23.552 8.835 55.289-2.269 73.561-15.284 25.152-44.598 23.768-46.365-7.163-.694-12.143 1.815-30.593 1.815-30.593-12.333-3.325-23.627-4.141-41.49-10.569s-36.872-37.858-10.79-46.669z" fill="#ffaac3"/><path d="M622.076 745.34c-1.754 0-3.489-.206-5.188-.629-10.221-2.55-16.801-12.443-17.602-26.463-.564-9.883.91-23.561 1.554-28.868-3.513-.878-6.988-1.589-10.632-2.334-8.045-1.645-17.164-3.509-28.947-7.749a2.5 2.5 0 0 1 1.693-4.705c11.444 4.118 19.99 5.866 28.256 7.556 4.447.91 8.648 1.769 13.037 2.952a2.5 2.5 0 0 1 1.827 2.75c-.025.183-2.468 18.355-1.796 30.113.679 11.894 5.717 19.875 13.82 21.897 9.483 2.365 20.698-4.021 27.912-15.89 9.075-14.935 19.789-46.652 2.377-70.801-20.132-27.923-65.603-35.493-105.767-17.608a2.5 2.5 0 1 1-2.033-4.568c20.227-9.007 42.539-12.184 62.832-8.948 20.907 3.335 38.317 13.35 49.024 28.199 16.575 22.989 10.858 54.897-2.16 76.321-7.136 11.741-17.964 18.773-28.209 18.774z"/><path d="M555.926 666.727c27.272-3.768 77.205 10.767 90.785 45.143 10.668 27.005-5.033 55.763-20.289 70.744-21 20.621-49.073 12.071-43.179-18.345 2.314-11.941 9.282-29.207 9.282-29.207-11.136-6.256-21.883-9.824-37.617-20.447s-26.253-44.12 1.018-47.889z" fill="#ffaac3"/><path d="M602.158 796.381c-3.864 0-7.544-.85-10.816-2.607-9.28-4.985-13.226-16.192-10.554-29.979 1.884-9.718 6.676-22.614 8.604-27.6-3.188-1.715-6.381-3.258-9.729-4.876-7.395-3.573-15.775-7.623-26.154-14.631a2.5 2.5 0 0 1 2.799-4.144c10.08 6.806 17.935 10.602 25.531 14.272 4.087 1.975 7.947 3.84 11.91 6.066a2.5 2.5 0 0 1 1.094 3.115c-.068.17-6.905 17.185-9.146 28.747-2.266 11.696.654 20.671 8.012 24.624 8.611 4.625 21.053 1.193 30.962-8.538 12.47-12.244 30.654-40.352 19.716-68.042-12.751-32.278-60.71-47.372-88.118-43.585a2.5 2.5 0 0 1-.683-4.953c14.854-2.053 34.726 1.182 51.845 8.442 20.523 8.704 35.3 22.291 41.607 38.259 10.413 26.361-2.975 55.882-20.862 73.446-7.921 7.777-17.422 11.982-26.016 11.983z"/><path d="M549.746 710.401c25.67 3.085 68.967 29.449 71.687 62.668 2.225 27.177-22.562 48.683-39.995 58.649-23.995 13.718-49.343-2.39-36.731-28.609 4.951-10.294 15.011-22.52 15.011-22.52-8.743-6.386-19.532-14.35-27.316-22-18.615-18.295-8.326-51.274 17.344-48.189z" fill="#ffaac3"/><path d="M563.663 839.223c-6.896 0-13.252-2.208-17.953-6.586-7.775-7.242-8.993-18.686-3.256-30.612 3.85-8.003 10.556-16.96 13.669-20.94-8.939-6.437-13.464-9.936-25.392-20.635a2.5 2.5 0 0 1 3.34-3.721c12.646 11.346 16.84 14.469 27.104 21.829a2.492 2.492 0 0 1 1.021 1.708 2.499 2.499 0 0 1-.548 1.913c-.099.12-9.929 12.119-14.688 22.015-4.809 9.997-4.022 19.03 2.157 24.786 7.299 6.797 19.787 7.025 31.079.569 6.916-3.954 41.284-25.248 38.745-56.274-2.496-30.487-43.243-57.236-69.494-60.391a2.5 2.5 0 0 1-2.185-2.78 2.504 2.504 0 0 1 2.78-2.184c27.567 3.313 71.095 30.906 73.881 64.946 2.159 26.373-19.891 48.814-41.245 61.023-6.236 3.565-12.843 5.334-19.016 5.334z"/></svg></g><g transform="translate(1373.0 464.0) rotate(0.0 593.5 822.0) scale(0.999801218965732 0.9998789684217056)"><svg width="1187.236" height="1644.199" viewBox="0 0 1187.236 1644.199"><path d="M191.929 346.214s39.68-141.774 6.459-186.907c-19.039-25.865-41.723-48.109-72.007-72.514-26.267-21.169-47.288-32.305-62.858-16.073-12.74 13.284-.557 31.577 17.696 51.457 7.131 7.767 41.225 41.724 49.768 57.212 11.922 21.616 5.549 58.963-12.894 61.828-17.468 2.714-19.597-7.668-40.591-38.088-9.975-14.454-53.256-62.77-73.032-26.701-10.141 18.497 21.416 41.591 36.443 86.528 6.223 18.609 10.834 57.723 54.165 87.128 39.001 26.467 96.851-3.871 96.851-3.871z" fill="#fbb348"/><path d="M133.549 363.346c-13.599 0-27.634-2.884-39.876-11.192-37.618-25.529-46.843-58.95-52.354-78.919-1.002-3.632-1.868-6.768-2.776-9.485-6.492-19.415-16.273-34.942-24.132-47.419C3.65 199.248-4.124 186.906 2.278 175.228c4.988-9.098 11.814-13.931 20.288-14.366 23.111-1.19 50.831 31.919 56.994 40.849 4.105 5.949 7.453 11.073 10.406 15.594 12.036 18.428 15.27 23.38 27.743 21.443 6.145-.954 10.01-6.402 12.171-10.804 6.609-13.465 6.135-34.262-1.082-47.347-6.788-12.307-30.283-36.752-42.905-49.884-2.885-3.002-5.164-5.373-6.516-6.845-17-18.515-32.394-39.515-17.659-54.878 8.056-8.4 17.866-10.571 29.993-6.637 9.639 3.127 20.815 10.064 36.237 22.493 31.85 25.667 54.194 48.174 72.452 72.978 33.559 45.59-4.432 183.226-6.065 189.062a2.5 2.5 0 0 1-1.22 1.526c-.404.219-28.861 14.933-59.566 14.933zM23.802 165.831c-.329 0-.655.008-.979.025-6.719.345-12.005 4.197-16.16 11.776-4.988 9.098 2.129 20.397 11.979 36.034 8.002 12.704 17.96 28.513 24.644 48.499.95 2.843 1.875 6.193 2.854 9.74 5.673 20.555 14.247 51.617 50.343 76.112 34.615 23.49 85.715.169 93.328-3.54 3.527-13.082 37.196-142.073 6.563-183.688-17.991-24.443-40.063-46.664-71.562-72.049-25.429-20.492-45.276-31.104-59.484-16.289-9.57 9.978-4.433 23.895 17.733 48.035 1.313 1.43 3.574 3.783 6.437 6.762 12.782 13.298 36.573 38.051 43.68 50.934 8.054 14.602 8.565 36.942 1.191 51.965-3.85 7.842-9.345 12.524-15.892 13.542-15.65 2.434-20.647-5.202-32.697-23.649-2.937-4.496-6.266-9.592-10.335-15.489-8.493-12.307-33.023-38.72-51.643-38.72z"/><path d="M596.453 639.07c-84.237 64.093-224.989 165.228-329.654 126.866-76.371-27.991-108.054-111.409-141.321-202.419-20.246-55.386-60.155-79.881-54.937-141.005 3.243-37.995 32.484-76.304 72.104-92.143 38.673-15.46 93.623-14.984 131.163 39.037 34.928 50.263 45.349 176.317 73.25 225.242 0 0 81.481-72.357 120.949-104.381 38.368-31.131 124.461-65.568 194.03-10.072l-65.584 158.874z" fill="#92acef"/><path d="M316.506 776.798c-18.2 0-35.07-2.834-50.568-8.515-35.518-13.018-63.513-38.003-88.103-78.63-22.503-37.178-39.611-83.982-54.706-125.277-7.281-19.918-17.09-35.718-26.575-50.998-16.402-26.421-31.895-51.377-28.506-91.079 3.372-39.502 33.665-78.26 73.668-94.252 22.105-8.837 46.06-11.203 67.453-6.661 26.709 5.67 49.146 21.347 66.69 46.593 19.235 27.679 30.971 77.292 42.319 125.271 9.122 38.568 17.76 75.083 29.563 97.449 13.656-12.097 83.376-73.721 118.688-102.373 23.325-18.925 55.66-33.149 86.498-38.049 41.246-6.554 79.517 3.115 110.666 27.964a2.5 2.5 0 1 1-3.117 3.908c-66.038-52.679-150.344-22.845-190.896 10.059-38.974 31.623-120.05 103.585-120.864 104.308a2.503 2.503 0 0 1-3.832-.631c-12.931-22.674-21.985-60.956-31.572-101.485-11.241-47.525-22.865-96.669-41.559-123.569-45.106-64.908-109.516-45.605-128.183-38.143-38.316 15.318-67.324 52.341-70.541 90.035-3.248 38.049 11.127 61.205 27.771 88.016 9.619 15.495 19.565 31.517 27.022 51.918 31.061 84.971 63.178 172.834 139.834 200.93 45.013 16.498 102.39 8.115 170.537-24.915 56.369-27.322 110.867-66.688 156.743-101.594a2.5 2.5 0 0 1 3.027 3.979c-46.072 35.055-100.824 74.6-157.59 102.114-46.197 22.391-87.654 33.623-123.87 33.625z"/><path d="M361.139 620.434c-.78 0-1.549-.364-2.036-1.047-.243-.341-6.054-8.516-14.241-23.542a2.502 2.502 0 0 1 .999-3.392 2.502 2.502 0 0 1 3.392.999c8.026 14.73 13.861 22.948 13.92 23.029a2.5 2.5 0 0 1-2.033 3.952z"/><path d="m823.417 1573.51-.888 64.275 172.324-178.781 65.514-66.282s-21.12-35.902-21.073-38.16c.046-2.257-215.877 218.948-215.877 218.948z" fill="#ef4910"/><path d="m822.797 1573.815 218.652-221.474s-98.068-95.404-119.567-105.459c0 0-33.96 11.157-63.285 63.581s-30.167 67.42-75.302 92.952l39.501 170.4z" fill="#fff"/><path d="M785.405 1401.029s31.101-12.997 52.73-50.917c21.628-37.919 46.421-90.158 83.785-104.673 0 0-182.602-117.504-223.13-130.585l-168.8-9.898 255.415 296.072z" fill="#6f5490"/><path d="M822.446 1642.995a2.5 2.5 0 0 1-2.156-1.235l-314.26-535.289a2.5 2.5 0 0 1 2.283-3.762l190.604 9.648c.346.018.683.106.992.261 174.208 87.087 262.596 158.51 306.067 203.091 47.473 48.685 53.354 76.491 53.58 77.651a2.499 2.499 0 0 1-.642 2.204l-234.656 246.654a2.502 2.502 0 0 1-1.812.777zm-309.758-535.058 310.233 528.431 231.41-243.242c-1.694-5.792-11.229-32.365-52.631-74.636-43.22-44.128-130.968-114.836-303.561-201.165l-185.452-9.388z"/><path d="M820.179 1579.96a2.5 2.5 0 0 1-1.794-4.242l215.248-221.706a2.501 2.501 0 0 1 3.588 3.483l-215.248 221.706a2.496 2.496 0 0 1-1.794.758zm-47.938-171.695h-.065a2.501 2.501 0 0 1 .028-5h.018c.444-.002 36.636-.904 73.421-72.638 17.039-33.228 43.633-75.022 73.564-85.439l.605-.213a2.5 2.5 0 1 1 1.699 4.702l-.661.233c-28.368 9.873-54.137 50.584-70.759 82.999-38.014 74.128-75.494 75.356-77.851 75.356z"/><path d="M870.413 1590.931a2.492 2.492 0 0 1-1.94-.921l-27.225-33.414a2.5 2.5 0 0 1 3.877-3.158l27.225 33.414a2.5 2.5 0 0 1-1.936 4.079zm16.512-17.084a2.492 2.492 0 0 1-1.94-.921l-27.225-33.414a2.5 2.5 0 0 1 3.877-3.158l27.225 33.414a2.5 2.5 0 0 1-1.936 4.079zm108.199-111.75a2.492 2.492 0 0 1-1.94-.921l-27.226-33.414a2.5 2.5 0 0 1 3.877-3.158l27.226 33.414a2.5 2.5 0 0 1-1.936 4.079zm23.043-25.451a2.491 2.491 0 0 1-1.942-.924l-25.884-31.86a2.5 2.5 0 0 1 3.881-3.153l25.884 31.86a2.5 2.5 0 0 1-1.938 4.077z"/><path d="M447.658 1446.86s-160.964 46.826-160.964 194.839h536.548s23.774-112.451-18.955-204.95l-65.801-7.475-290.827 17.586z" fill="#fff"/><path d="M297.509 1581.696c-7.723 20.001-11.327 40.002-10.815 60.003h536.548c4.388-21.657 6.591-41.994 4.963-60.018l-530.695.016z" fill="#ef4910"/><path d="M823.242 1644.199H286.694a2.5 2.5 0 0 1-2.5-2.5c0-34.22 8.581-65.903 25.506-94.171 13.518-22.578 32.351-43.019 55.976-60.753 40.141-30.133 80.877-42.198 81.284-42.316.179-.052.362-.084.548-.095l290.826-17.585a2.51 2.51 0 0 1 .434.012l65.801 7.475a2.5 2.5 0 0 1 1.987 1.436c22.271 48.209 26.285 101.79 25.732 138.249-.6 39.461-6.54 67.983-6.6 68.267a2.5 2.5 0 0 1-2.446 1.983zm-534.032-5h531.972c1.324-7.064 5.614-32.34 6.107-65.44.53-35.585-3.344-87.697-24.688-134.686l-64.183-7.291-290.32 17.555c-3.508 1.069-41.788 13.148-79.548 41.531-35.8 26.909-78.398 74.4-79.341 148.331z"/><path d="m730.733 698.115-58.946 26.078-40.28 65.643c-96.889 1.592-443.597-15.658-492.826 148.8-29.866 99.771 8.511 214.655 310.347 509.164 0 0 52.85 28.826 149.956 10.426s179.79-30.426 211.511-7.058c0 0-74.127-185.377-257.163-332.178 0 0 305.036 15.606 411.856-18.465 97.642-31.148 215.544-273.75-130.131-453.262l-104.322 50.852z" fill="#6f5490"/><path d="M536.422 1466.83c-20.372 0-36.951-2.071-49.308-4.462-25.439-4.924-38.731-12.071-39.285-12.373a2.53 2.53 0 0 1-.549-.405c-300.455-293.163-341.549-409.606-310.995-511.671 19.471-65.048 87.26-109.491 201.482-132.094 93.923-18.587 198.382-18.452 260.804-18.373 12.197.017 22.813.029 31.522-.095l39.562-64.472a2.509 2.509 0 0 1 1.119-.979l58.905-26.06 104.278-50.831a2.5 2.5 0 0 1 2.248.028c214.973 111.637 237.593 239.433 231.942 305.674-6.811 79.847-57.74 138.005-102.203 152.189-96.586 30.807-357.171 21.034-405.125 18.931 91.604 74.863 154.746 159.001 191.835 216.943 41.064 64.152 59.973 110.993 60.159 111.458a2.5 2.5 0 0 1-3.804 2.941c-32.091-23.639-121.122-9.257-209.563 7.502-23.795 4.509-44.91 6.147-63.026 6.148zm-85.914-21.078c4.301 2.183 56.653 27.327 148.009 10.018 42.698-8.091 91.602-16.702 130.578-19.231 35.126-2.276 60.137.49 76.033 8.456-6.809-15.372-25.194-54.341-56.759-103.635-37.673-58.836-102.363-144.836-196.604-220.42a2.5 2.5 0 0 1-.772-2.839 2.511 2.511 0 0 1 2.465-1.607c3.047.155 305.804 15.194 410.969-18.35 22.293-7.111 45.37-25.563 63.313-50.623 14.053-19.625 31.606-52.424 35.428-97.228 5.534-64.885-16.8-190.074-228.15-300.231l-103.188 50.3a1.576 1.576 0 0 1-.084.039l-58.234 25.763-39.873 64.979a2.498 2.498 0 0 1-2.09 1.192c-9.002.148-20.116.135-32.982.117-123.704-.161-413.357-.532-457.49 146.9-29.993 100.198 11.038 215.202 309.434 506.4z"/><path d="M553.486 1121.517a2.488 2.488 0 0 1-1.692-.661l-149.548-137.68a2.5 2.5 0 0 1 3.386-3.679l149.548 137.68a2.5 2.5 0 0 1-1.694 4.34zm-255.978 462.679a2.5 2.5 0 1 1 0-5l530.696-.016a2.5 2.5 0 1 1 0 5z"/><path d="M360.701 1644.198a2.5 2.5 0 0 1-2.5-2.5v-60.001a2.5 2.5 0 1 1 5 0v60.001a2.5 2.5 0 0 1-2.5 2.5zm18.501 0a2.5 2.5 0 0 1-2.5-2.5v-60.001a2.5 2.5 0 1 1 5 0v60.001a2.5 2.5 0 0 1-2.5 2.5zm74.007 0a2.5 2.5 0 0 1-2.5-2.5v-60.001a2.5 2.5 0 1 1 5 0v60.001a2.5 2.5 0 0 1-2.5 2.5zm18.502 0a2.5 2.5 0 0 1-2.5-2.5v-60.001a2.5 2.5 0 1 1 5 0v60.001a2.5 2.5 0 0 1-2.5 2.5zm18.501 0a2.5 2.5 0 0 1-2.5-2.5v-60.001a2.5 2.5 0 1 1 5 0v60.001a2.5 2.5 0 0 1-2.5 2.5zm129.511 0a2.5 2.5 0 0 1-2.5-2.5v-60.001a2.5 2.5 0 1 1 5 0v60.001a2.5 2.5 0 0 1-2.5 2.5zm74.007 0a2.5 2.5 0 0 1-2.5-2.5v-60.001a2.5 2.5 0 1 1 5 0v60.001a2.5 2.5 0 0 1-2.5 2.5zm18.501 0a2.5 2.5 0 0 1-2.5-2.5v-60.001a2.5 2.5 0 1 1 5 0v60.001a2.5 2.5 0 0 1-2.5 2.5zm74.007 0a2.5 2.5 0 0 1-2.5-2.5v-60.001a2.5 2.5 0 1 1 5 0v60.001a2.5 2.5 0 0 1-2.5 2.5zm-364.313-121.319c-5.506 0-10.863-.423-16.077-1.271-32.633-5.304-46.64-25.581-47.221-26.441a2.5 2.5 0 0 1 4.147-2.796c.129.19 13.535 19.434 44.05 24.331 38.112 6.111 86.912-12.667 141.109-54.319a2.501 2.501 0 0 1 3.047 3.965c-48.891 37.573-92.21 56.531-129.055 56.531zm324.95-730.543H631.507a2.5 2.5 0 1 1 0-5h115.368a2.5 2.5 0 1 1 0 5z"/><path d="M671.787 724.193c-81.673 6.468-113.52-59.583-118.285-108.02-5.209-52.946-7.23-81.612-12.383-144.102-2.479-30.047-17.373-51.453 14.033-73.405 16.948-11.841 53.914-37.068 86.097-37.845 48.835-1.175 46.467 16.855 65.986 42.165 67.527 66.994 184.951 146.255 128.29 245.461-15.78 27.628-74.121 68.648-163.739 75.746z" fill="#92acef"/><path d="M661.088 727.123c-32.273 0-59.482-11.884-79.177-34.718-16.801-19.48-28.063-47.176-30.896-75.987a4301.435 4301.435 0 0 1-5.792-63.444 2.5 2.5 0 1 1 4.982-.42 4306.968 4306.968 0 0 0 5.786 63.375c5.175 52.607 38.543 111.869 115.599 105.772 50.344-3.987 86.841-18.458 108.594-29.895 24.789-13.034 44.666-29.706 53.172-44.599 46.774-81.896-27.578-149.893-93.179-209.886-12.375-11.317-24.063-22.007-34.701-32.561a2.715 2.715 0 0 1-.219-.248c-4.281-5.551-7.554-10.799-10.44-15.429-10.364-16.62-16.649-26.652-53.506-25.764-32.321.781-70.393 27.381-84.726 37.395-22.771 15.917-19.938 30.717-16.017 51.202 1.207 6.305 2.455 12.825 3.042 19.948a2.5 2.5 0 0 1-2.286 2.697 2.51 2.51 0 0 1-2.696-2.286c-.566-6.857-1.788-13.244-2.971-19.42-3.951-20.641-7.364-38.467 18.063-56.24 14.671-10.25 53.641-37.478 87.469-38.295 39.72-.958 46.952 10.609 57.869 28.117 2.803 4.494 5.976 9.583 10.057 14.89 10.534 10.444 22.146 21.063 34.437 32.303 33.61 30.738 68.364 62.522 89.754 98.137 24.742 41.2 26.179 79.771 4.392 117.918-8.959 15.686-29.59 33.086-55.188 46.545-22.167 11.655-59.336 26.399-110.525 30.453-3.69.292-7.326.438-10.896.438z"/><path d="M426.878 207.627c-39.436-14.432-67.927-48.239-59.689-85.388C382.763 52.015 583.84-61.858 682.868 48.54c14.964 16.682 11.333 38.766 6.572 51.705 9.357-.505 39.305 11.041 50.547 52.137 10.007 36.582 1.261 78.971-30.815 104.544-91.768 29.906-185.535 20.061-282.295-49.299z" fill="#6f5490"/><path d="M709.174 259.425a2.5 2.5 0 0 1-1.561-4.454c28.848-23 40.609-63.01 29.963-101.93-10.748-39.29-39.367-50.769-48.001-50.3a2.5 2.5 0 0 1-2.482-3.359c3.325-9.037 9.389-31.919-6.088-49.172C630.28-6.343 557.306 2.362 518.315 12.586 440.574 32.972 377.56 87.022 369.629 122.78c-7.396 33.348 16.499 67.273 58.106 82.499 1.297.474 1.963 1.91 1.488 3.207s-1.907 1.964-3.207 1.489c-44.027-16.112-69.222-52.413-61.269-88.277 4.381-19.756 23.131-43.414 51.44-64.908C445.5 34.534 481.319 17.118 517.045 7.75c69.219-18.151 128.771-4.259 167.682 39.121 15.677 17.478 11.718 39.725 8.131 51.093 12.503 1.858 38.998 15.224 49.539 53.759 11.175 40.849-1.256 82.912-31.668 107.159a2.492 2.492 0 0 1-1.557.545z"/><path d="m532.303 360.756 30.953 73.72s67.292 7.669 96.061-40.264l-37.004-80.293z" fill="#fbb348"/><path d="M475.577 134.175s-53.303 24.46-52.536 95.089c0 0-19.26-8.992-25.171 3.848s12.59 23.377 24.404 29.538c0 0 4.172 82.758 79.659 97.365s116.792-45.718 118.845-47.494c0 0 77.073 31.814 116.403-43.747 25.313-48.631-8.8-101.749-50.704-103.313-52.861-1.973-76.817 43.266-83.335 74.07-17.875-59.182-50.338-108.972-127.565-105.356z" fill="#fbb348"/><path d="M575.255 437.637c-7.321 0-11.99-.636-12.347-.686a2.5 2.5 0 0 1-1.956-1.508l-30.418-72.444a2.499 2.499 0 1 1 4.609-1.936l29.85 71.088c9.327.895 63.196 4.053 91.473-38.155l-36.423-79.032a2.5 2.5 0 1 1 4.541-2.093l37.004 80.293a2.501 2.501 0 0 1-.171 2.404c-13.41 20.745-34.713 34.479-61.604 39.718-9.496 1.85-18.068 2.35-24.558 2.35z"/><path d="M525.294 364.814c-7.809 0-15.757-.78-23.836-2.343-40.03-7.746-60.122-34.489-69.929-55.56-9.102-19.556-11.211-37.535-11.648-42.689-10.354-5.43-31.228-17.065-24.281-32.153 1.635-3.551 4.267-6.012 7.823-7.315 5.891-2.159 12.964-.513 17.128.873.555-35.227 14.646-58.549 26.599-72.049 13.426-15.164 26.821-21.415 27.385-21.674.292-.134.605-.21.926-.225 36.66-1.717 65.421 8.041 87.896 29.832 16.435 15.933 29.401 38.522 39.51 68.883 9.91-33.93 36.616-69.181 83.705-67.428 20.586.769 39.86 13.236 51.559 33.35 13.081 22.491 13.556 50.011 1.27 73.616-20.856 40.069-52.306 50.149-75.015 51.55-20.601 1.269-37.509-4.067-42.836-5.99l-.014.017c-3.966 4.915-16.032 19.873-36.18 32.142-18.763 11.425-38.887 17.165-60.062 17.166zM409.863 228.696c-1.635 0-3.255.213-4.73.755-2.288.841-3.921 2.381-4.992 4.708-4.648 10.099 10.005 19.347 23.29 26.276a2.503 2.503 0 0 1 1.341 2.089c.01.204 1.164 20.599 11.361 42.428 13.559 29.023 35.856 46.724 66.274 52.61 59.289 11.473 97.646-23.392 115.236-45.195.852-1.056 1.17-1.451 1.499-1.736a2.507 2.507 0 0 1 2.588-.421c.189.078 19.167 7.753 42.527 6.267 31.071-1.977 54.86-18.414 70.706-48.857 11.49-22.075 11.059-47.793-1.155-68.794-10.67-18.346-28.842-30.173-47.425-30.867-47.958-1.788-73.522 37.714-80.796 72.089a2.5 2.5 0 0 1-2.34 1.98 2.476 2.476 0 0 1-2.5-1.775c-22.48-74.43-60.903-106.403-124.541-103.605-2.323 1.166-14.011 7.414-25.466 20.415-11.709 13.289-25.586 36.597-25.199 72.174a2.504 2.504 0 0 1-1.146 2.129 2.503 2.503 0 0 1-2.412.164c-.076-.035-6.193-2.834-12.121-2.834z"/><path d="M637.061 284.688a2.5 2.5 0 0 1-2.426-3.111c.157-.622 3.984-15.455 15.984-34.173 11.055-17.244 31.438-41.101 65.76-56.832a2.5 2.5 0 0 1 2.084 4.545c-63.452 29.082-78.833 87.102-78.98 87.685a2.503 2.503 0 0 1-2.422 1.886z"/><path d="M679.824 262.08a2.491 2.491 0 0 1-1.544-.535c-11.782-9.271-26.066-7.669-26.207-7.652a2.503 2.503 0 0 1-2.783-2.177 2.497 2.497 0 0 1 2.169-2.785c.663-.082 16.444-1.914 29.913 8.685a2.5 2.5 0 0 1-1.548 4.464zm-246.648 42.942a2.5 2.5 0 0 1-.024-5c.775-.01 19.027-.473 23.941-20.753a2.5 2.5 0 0 1 4.86 1.177c-5.851 24.145-28.531 24.574-28.76 24.576z"/><path d="M452.801 214.898a6.17 6.17 0 1 1 6.17 6.17 6.166 6.166 0 0 1-6.17-6.163z" fill="#161616"/><path d="M484.241 289.358c.003-19.126 15.509-34.628 34.635-34.626 19.126.003 34.628 15.509 34.626 34.635-.003 19.122-15.504 34.623-34.626 34.626-19.126.003-34.632-15.5-34.635-34.626z" fill="#e79f33"/><path d="M603.142 239.531c-40.489-4.885-58.516-41.289-60.031-80.489-64.918 13.463-73.796-51.904-132.521-9.667 0 0 80.618-119.215 174.147-43.721 41.78 51.396 18.405 133.878 18.405 133.878z" fill="#6f5490"/><path d="M603.138 242.031c-.099 0-.197-.006-.297-.018-19.494-2.352-35.543-12.197-46.409-28.47-9.091-13.613-14.488-31.369-15.678-51.502-28.318 5.018-46.122-4.762-61.89-13.422-19.94-10.952-35.688-19.602-66.814 2.786a2.499 2.499 0 0 1-3.489-.57 2.499 2.499 0 0 1 .569-3.489c33.69-24.231 52.367-13.97 72.142-3.109 16.294 8.95 33.145 18.205 61.331 12.358a2.5 2.5 0 0 1 3.006 2.352c1.689 43.716 22.362 72.591 55.47 77.776.992-4.901 4.149-16.623 13.692-33.513a2.5 2.5 0 0 1 4.353 2.459c-11.98 21.203-13.483 34-13.497 34.127a2.503 2.503 0 0 1-2.49 2.235z"/><path d="M737.081 615.133c63.839 12.82 197.452 93.594 231.241 133.048 23.436 81.239-37.442 297.7 51.43 320.258 98.069 24.893 165.129 4.91 164.984-129.855-.11-102.049-33.974-262.064-83.236-323.451-42.159-52.536-148.265-127.586-231.761-167.383-61.532-29.328-168.909-76.736-202.767 1.933" fill="#92acef"/><path d="M1083.787 1080.277c-18.557 0-39.96-3.148-64.65-9.415-26.663-6.768-42.67-30.687-48.936-73.124-5.419-36.704-3.096-82.219-.849-126.236 2.454-48.089 4.772-93.53-3.283-122.106-34.401-39.642-167.55-119.376-229.48-131.812a2.5 2.5 0 0 1 .984-4.902c29.233 5.871 76.957 27.115 127.661 56.831 48.304 28.308 88.532 57.829 104.986 77.042a2.5 2.5 0 0 1 .504.933c8.466 29.348 6.112 75.455 3.621 124.27-2.234 43.773-4.544 89.037.802 125.25 5.938 40.219 20.729 62.791 45.22 69.007 57.653 14.635 96.648 11.996 122.717-8.306 26.409-20.566 39.216-59.531 39.152-119.123-.055-50.915-8.696-116.855-23.115-176.388-15.944-65.826-37.1-117.5-59.571-145.501-40.588-50.579-144.164-125.356-230.886-166.691-36.961-17.617-113.87-54.272-162.709-35.901-16.587 6.24-28.93 18.542-36.688 36.566a2.5 2.5 0 1 1-4.592-1.977c8.314-19.321 21.611-32.533 39.52-39.27 50.832-19.12 129.036 18.154 166.619 36.067 87.292 41.607 191.652 117.005 232.636 168.076 49.236 61.354 83.674 220.53 83.786 325.013.065 61.238-13.372 101.495-41.08 123.072-15.979 12.443-36.379 18.622-62.369 18.623z"/><path d="M968.321 750.681a2.499 2.499 0 0 1-2.402-1.813c-.071-.248-7.141-24.975-10.698-39.003a2.5 2.5 0 1 1 4.846-1.229c3.54 13.956 10.589 38.61 10.659 38.858a2.5 2.5 0 0 1-2.404 3.188z"/><path d="M1123.739 1116.783c-16.753 1.262-167.773-3.403-167.773-3.403s-47.74-21.01-15.032-50.798c13.341-12.15 48.977-46.333 79.41-24.483 12.485-10.144 36.427-12.897 52.283 1.929 10.665-9.364 35.621-11.68 56.445.52 51.502 30.173 34.66 73.222-5.332 76.235z" fill="#fbb348"/><path d="M1112.418 1119.499c-38.823 0-151.116-3.453-156.528-3.62a2.507 2.507 0 0 1-.93-.211c-1.012-.445-24.815-11.109-27.696-28.729-1.443-8.83 2.59-17.646 11.987-26.205l1.303-1.189c14.75-13.489 48.963-44.782 79.711-24.535 13.544-9.823 36.406-11.732 52.449 1.754 12.092-8.804 36.591-10.694 57.622 1.627 24.621 14.425 36.792 33.962 32.558 52.263-3.675 15.881-18.97 27.116-38.966 28.623-2.055.155-6.06.223-11.51.223zm-155.866-8.602c9.668.297 151.045 4.597 167 3.393 17.769-1.338 31.299-11.059 34.47-24.764 3.716-16.057-7.579-33.56-30.214-46.821-19.533-11.443-43.449-9.652-53.531-.799a2.498 2.498 0 0 1-3.356-.052c-14.25-13.323-36.84-11.695-49-1.815a2.5 2.5 0 0 1-3.034.09c-27.837-19.986-60.859 10.209-74.959 23.104l-1.31 1.196c-8.063 7.343-11.569 14.642-10.421 21.692 2.246 13.792 21.264 23.313 24.355 24.774z"/><path d="M969.859 1039.989c-13.413 7.165-34.269 18.602-58.481 50.418-24.212 31.817-25.418 69.156-9.825 79.529 15.589 10.372 45.96-1.932 69.37-46.672" fill="#fbb348"/><path d="M913.615 1175.896c-5.019 0-9.576-1.302-13.447-3.877-5.536-3.684-9.243-10.269-10.719-19.044-3.219-19.134 4.422-43.688 19.94-64.081 24.92-32.747 46.437-44.242 59.292-51.109a2.5 2.5 0 0 1 2.356 4.41c-12.495 6.675-33.409 17.848-57.669 49.728-14.486 19.037-21.939 42.676-18.988 60.224 1.241 7.378 4.2 12.811 8.559 15.71 4.719 3.14 10.876 3.862 17.807 2.085 16.83-4.312 34.313-21.748 47.963-47.835a2.5 2.5 0 0 1 4.43 2.319c-14.306 27.341-32.95 45.696-51.151 50.36-2.897.742-5.7 1.111-8.371 1.111z"/><path d="M1006.558 1051.994c-10.665 10.925-30.173 21.964-44.219 62.167-14.463 41.396-5.564 83.492 16.59 90.317v-.002c28.222 5.377 40.635-19.565 42.195-71.067 10.144-4.815 29.917-18.988 33.815-24.711" fill="#fbb348"/><path d="M986.064 1207.688c-2.424 0-4.959-.251-7.603-.755a2.781 2.781 0 0 1-.269-.067c-7.388-2.275-13.653-8.149-18.119-16.986-9.64-19.074-9.677-49.119-.096-76.544 11.654-33.355 26.974-46.981 38.159-56.931 2.425-2.157 4.715-4.193 6.632-6.158a2.5 2.5 0 0 1 3.578 3.494c-2.041 2.09-4.395 4.184-6.887 6.4-10.776 9.586-25.535 22.714-36.762 54.845-9.155 26.205-9.22 54.717-.163 72.639 3.812 7.542 8.996 12.526 15 14.424 8.643 1.618 15.55.235 21.107-4.225 11.054-8.869 16.937-29.964 17.982-64.49a2.5 2.5 0 0 1 1.427-2.183c10.07-4.78 29.395-18.829 32.82-23.86a2.5 2.5 0 1 1 4.133 2.815c-4.12 6.051-22.737 19.427-33.431 24.883-1.228 35.194-7.71 57.033-19.803 66.735-4.948 3.969-10.883 5.964-17.708 5.964z"/><path d="M1051.818 1053.815c-9.624 11.526-28.352 24.451-41.228 56.835-16.571 41.68 1.956 95.28 27.698 95.178 24.733-.098 32.974-20.655 31.608-65.525 10.73-8.584 27.897-30.628 27.897-30.628" fill="#fbb348"/><path d="M1038.216 1208.327c-8.467 0-16.708-5.254-23.217-14.805-12.569-18.444-18.917-53.15-6.732-83.796 10.042-25.256 23.708-39.032 33.688-49.09 3.087-3.112 5.754-5.8 7.944-8.423a2.5 2.5 0 1 1 3.837 3.205c-2.328 2.788-5.196 5.679-8.233 8.74-9.675 9.752-22.926 23.108-32.59 47.416-11.418 28.717-5.318 62.204 6.218 79.133 3.927 5.762 10.422 12.62 19.081 12.621h.065c7.857-.031 13.812-2.255 18.202-6.8 8.351-8.643 11.819-26.485 10.917-56.148a2.5 2.5 0 0 1 .938-2.028c10.375-8.3 27.316-29.994 27.486-30.212a2.5 2.5 0 0 1 3.946 3.072c-.688.883-16.5 21.129-27.336 30.246.824 30.78-2.999 48.862-12.354 58.545-5.377 5.565-12.501 8.289-21.778 8.326h-.081z"/></svg></g><g transform="translate(1280.0 436.0) rotate(0.0 155.5 155.5) scale(0.9982378373867354 0.9982378373867354)"><svg width="311.549" height="311.549" viewBox="0 0 311.549 311.549"><g fill="#fff"><path d="M155.775 155.775s-11.468-75.451-9.416-102.169c2.394-31.18 23.038-56.539 48.275-50.099 25.236 6.44 30.424 36.583 18.364 67.105-11.136 28.182-57.222 85.163-57.222 85.163z"/><path d="M155.775 155.775s45.243-61.461 65.586-78.903c23.74-20.354 56.27-23.689 69.561-1.29s-4.355 47.381-34.465 60.435c-27.802 12.054-100.682 19.757-100.682 19.757z"/><path d="M155.775 155.775s75.451-11.468 102.169-9.416c31.18 2.394 56.539 23.038 50.099 48.275-6.44 25.236-36.583 30.424-67.105 18.364-28.182-11.136-85.163-57.222-85.163-57.222z"/><path d="M155.775 155.775s61.461 45.243 78.903 65.586c20.354 23.74 23.689 56.27 1.29 69.561s-47.381-4.355-60.435-34.465c-12.054-27.802-19.757-100.682-19.757-100.682z"/><path d="M155.775 155.775s11.468 75.451 9.416 102.169c-2.394 31.18-23.038 56.539-48.275 50.099-25.236-6.44-30.424-36.583-18.364-67.105 11.136-28.182 57.222-85.163 57.222-85.163z"/><path d="M155.775 155.775s-45.243 61.461-65.586 78.903c-23.74 20.354-56.27 23.689-69.561 1.29s4.355-47.381 34.465-60.435c27.802-12.054 100.682-19.757 100.682-19.757z"/><path d="M155.775 155.775s-75.451 11.468-102.169 9.416c-31.18-2.394-56.539-23.038-50.099-48.275C9.947 91.68 40.09 86.492 70.612 98.552c28.182 11.136 85.163 57.222 85.163 57.222z"/><path d="M155.775 155.775s-61.461-45.243-78.903-65.586c-20.354-23.74-23.689-56.27-1.29-69.561s47.381 4.355 60.435 34.465c12.054 27.802 19.757 100.682 19.757 100.682z"/></g><path d="M155.775 158.275a2.5 2.5 0 0 1-2.471-2.124c-.47-3.093-11.487-76.041-9.437-102.736 1.516-19.738 10.355-37.664 23.069-46.781 8.595-6.165 18.384-8.081 28.315-5.549 9.667 2.468 17.146 8.408 21.627 17.18 6.984 13.671 6.418 33.086-1.556 53.267-11.148 28.214-55.713 83.478-57.604 85.816-.481.596-1.2.928-1.943.928zM186.823 5.008c-5.948 0-11.717 1.918-16.974 5.688-11.547 8.281-19.593 24.796-20.999 43.102-1.68 21.883 5.965 77.852 8.56 95.903 11.018-13.982 44.196-57.063 53.262-80.008 7.337-18.567 7.992-36.943 1.754-49.154-3.863-7.562-10.058-12.478-18.411-14.608a29.007 29.007 0 0 0-7.191-.922z"/><path d="M155.774 158.275a2.5 2.5 0 0 1-2.013-3.983c1.854-2.519 45.646-61.891 65.973-79.317 15.026-12.885 33.951-19.307 49.392-16.768 10.436 1.72 18.717 7.286 23.946 16.1 5.091 8.58 6.179 18.068 3.146 27.439-4.729 14.606-18.858 27.934-38.767 36.565-27.833 12.067-98.422 19.633-101.413 19.949a2.594 2.594 0 0 1-.264.014zm106.384-95.622c-12.728 0-27.211 5.864-39.17 16.117-16.663 14.287-50.832 59.268-61.761 73.866 17.677-2.096 71.601-9.099 94.235-18.912 18.317-7.941 31.774-20.472 35.998-33.518 2.615-8.079 1.71-15.935-2.689-23.349-4.451-7.502-11.526-12.245-20.458-13.717a37.974 37.974 0 0 0-6.155-.488z"/><path d="M271.015 221.737c-9.604 0-20.188-2.146-30.996-6.415-28.214-11.148-83.478-55.713-85.816-57.604a2.5 2.5 0 0 1 1.196-4.415c3.093-.47 76.044-11.494 102.736-9.437 19.738 1.516 37.664 10.355 46.781 23.069 6.164 8.595 8.082 18.386 5.549 28.315-2.468 9.668-8.408 17.146-17.179 21.627-6.351 3.244-13.942 4.859-22.271 4.859zM161.849 157.41c13.982 11.018 57.063 44.196 80.008 53.262 18.567 7.336 36.942 7.991 49.154 1.754 7.562-3.863 12.478-10.058 14.608-18.411 2.157-8.453.51-16.809-4.766-24.165-8.281-11.547-24.796-19.593-43.102-20.999-21.88-1.674-77.851 5.964-95.903 8.56z"/><path d="M220.2 297.898c-3.447 0-6.931-.559-10.397-1.681-14.606-4.729-27.934-18.858-36.565-38.767-12.067-27.833-19.633-98.422-19.949-101.413a2.502 2.502 0 0 1 3.969-2.277c2.519 1.854 61.891 45.646 79.317 65.973 12.886 15.027 19.31 33.953 16.768 49.392-1.72 10.436-7.286 18.717-16.1 23.946-5.405 3.207-11.172 4.826-17.042 4.826zm-61.287-136.671c2.096 17.677 9.099 71.601 18.912 94.235 7.941 18.317 20.472 31.774 33.518 35.998 8.077 2.614 15.933 1.711 23.349-2.689 7.502-4.451 12.245-11.526 13.717-20.458 2.309-14.021-3.68-31.388-15.629-45.325-14.287-16.663-59.268-50.832-73.866-61.761z"/><path d="M124.773 311.551c-2.797 0-5.63-.36-8.475-1.086-9.668-2.468-17.146-8.408-21.627-17.179-6.984-13.672-6.418-33.087 1.556-53.268 11.148-28.214 55.713-83.478 57.604-85.816a2.5 2.5 0 0 1 4.415 1.196c.47 3.093 11.487 76.041 9.437 102.736-1.516 19.738-10.355 37.664-23.069 46.781-6.133 4.398-12.875 6.635-19.841 6.635zm29.366-149.702c-11.018 13.982-44.196 57.063-53.262 80.008-7.337 18.568-7.992 36.943-1.754 49.154 3.863 7.562 10.058 12.478 18.411 14.608 8.455 2.16 16.809.51 24.165-4.766 11.547-8.281 19.593-24.796 20.999-43.102 1.68-21.883-5.965-77.852-8.56-95.903z"/><path d="M49.322 253.89c-2.358 0-4.665-.18-6.898-.548-10.437-1.719-18.717-7.286-23.946-16.1-5.091-8.58-6.179-18.068-3.146-27.439 4.729-14.606 18.858-27.934 38.767-36.565 27.833-12.067 98.422-19.633 101.413-19.949a2.518 2.518 0 0 1 2.432 1.242 2.504 2.504 0 0 1-.155 2.727c-1.854 2.519-45.646 61.891-65.973 79.317-12.854 11.021-28.559 17.315-42.493 17.315zm101-94.977c-17.677 2.096-71.601 9.099-94.235 18.912-18.317 7.941-31.774 20.472-35.998 33.518-2.615 8.079-1.71 15.935 2.689 23.349 4.451 7.502 11.525 12.245 20.458 13.717 14.02 2.313 31.388-3.681 45.325-15.629 16.663-14.287 50.832-59.268 61.761-73.866z"/><path d="M61.15 167.938c-2.867 0-5.466-.08-7.735-.255-19.737-1.515-37.663-10.354-46.781-23.068-6.165-8.595-8.083-18.387-5.55-28.317 2.468-9.667 8.408-17.146 17.18-21.627 13.669-6.985 33.085-6.418 53.267 1.556 28.214 11.148 83.478 55.713 85.816 57.604a2.5 2.5 0 0 1-1.196 4.415c-2.83.43-64.147 9.691-95.001 9.691zM40.506 94.87c-7.56 0-14.403 1.411-19.968 4.254-7.562 3.863-12.478 10.058-14.608 18.411-2.158 8.453-.51 16.81 4.767 24.166 8.281 11.547 24.796 19.593 43.101 20.998 21.887 1.677 77.852-5.964 95.903-8.56-13.982-11.018-57.063-44.196-80.008-53.262-10.106-3.993-20.157-6.008-29.187-6.008z"/><path d="M155.775 158.275a2.506 2.506 0 0 1-1.482-.486c-2.519-1.854-61.891-45.646-79.317-65.973-12.886-15.027-19.31-33.953-16.768-49.392 1.72-10.436 7.286-18.717 16.1-23.946 8.58-5.091 18.069-6.179 27.439-3.146 14.606 4.729 27.934 18.858 36.565 38.767 12.067 27.833 19.633 98.422 19.949 101.413a2.502 2.502 0 0 1-2.486 2.763zM91.294 18.631c-4.95 0-9.779 1.384-14.437 4.147-7.502 4.451-12.245 11.526-13.717 20.458-2.309 14.021 3.68 31.388 15.629 45.325 14.287 16.663 59.268 50.832 73.866 61.761-2.096-17.677-9.099-71.601-18.912-94.235-7.941-18.317-20.472-31.774-33.518-35.998-3.005-.973-5.979-1.458-8.912-1.458z"/><circle cx="155.775" cy="155.775" fill="#92acef" r="32.426"/><path d="M155.836 190.715c-2.898 0-5.815-.363-8.697-1.1-18.66-4.762-29.967-23.817-25.206-42.477 4.764-18.659 23.823-29.966 42.479-25.206 18.659 4.763 29.966 23.818 25.205 42.479-2.307 9.039-7.995 16.639-16.019 21.399-5.465 3.243-11.568 4.904-17.761 4.904zm-.057-64.869c-13.351 0-25.552 9.013-29.002 22.529-4.079 15.988 5.609 32.315 21.598 36.396 15.986 4.08 32.313-5.609 36.396-21.597 4.08-15.988-5.607-32.316-21.596-36.397a29.926 29.926 0 0 0-7.396-.932z"/></svg></g></svg>