<svg width="24" height="24" viewBox="0 0 24 24" fill="none" xmlns="http://www.w3.org/2000/svg">
<path d="M9.375 1.69043C8.145 1.69043 7.125 2.64743 7.125 3.84518C7.125 4.38668 7.341 4.87268 7.683 5.24993H3.375C2.7585 5.24993 2.25 5.75843 2.25 6.37493V9.37493C2.25 9.86018 2.56575 10.2734 3 10.4294V21.0412C3 21.8504 3.6825 22.4999 4.5 22.4999H20.25C21.0675 22.4999 21.75 21.8504 21.75 21.0412V10.4294C22.1835 10.2727 22.5 9.85943 22.5 9.37493V6.37493C22.5 5.75843 21.9915 5.24993 21.375 5.24993H17.067C17.409 4.87268 17.625 4.38743 17.625 3.84518C17.625 2.64743 16.605 1.69043 15.375 1.69043H15.1508C14.0288 1.69043 13.2877 2.24693 12.8655 2.99243C12.6555 3.36443 12.504 3.77693 12.375 4.20518C12.246 3.77693 12.096 3.36443 11.886 2.99243C11.4637 2.24693 10.7235 1.69043 9.60075 1.69043H9.375ZM9.375 2.44043H9.6C10.503 2.44043 10.899 2.77418 11.2327 3.36293C11.499 3.83318 11.6663 4.54718 11.8568 5.24993H9.375C8.5275 5.24993 7.875 4.61993 7.875 3.84518C7.875 3.07118 8.5275 2.44043 9.375 2.44043ZM15.1508 2.44043H15.375C16.2225 2.44043 16.875 3.07118 16.875 3.84518C16.875 4.61918 16.2225 5.24993 15.375 5.24993H12.8948C13.0853 4.54718 13.251 3.83318 13.5173 3.36293C13.851 2.77418 14.2485 2.44043 15.1508 2.44043ZM3.375 5.99993H9.53775C8.75925 6.61793 8.25 7.55693 8.25 8.62043C8.25 8.71989 8.28951 8.81527 8.35983 8.88559C8.43016 8.95592 8.52554 8.99543 8.625 8.99543C8.72446 8.99543 8.81984 8.95592 8.89017 8.88559C8.96049 8.81527 9 8.71989 9 8.62043C9 7.17068 10.179 5.99993 11.6475 5.99993H12V9.74993H3.375C3.32542 9.75116 3.2761 9.74231 3.23005 9.7239C3.18399 9.70549 3.14216 9.67792 3.10709 9.64284C3.07201 9.60777 3.04444 9.56594 3.02603 9.51988C3.00762 9.47383 2.99876 9.42451 3 9.37493V6.37493C3 6.16043 3.1605 5.99993 3.375 5.99993ZM12.75 5.99993H13.1025C14.5717 5.99993 15.75 7.16993 15.75 8.62043C15.75 8.71989 15.7895 8.81527 15.8598 8.88559C15.9302 8.95592 16.0255 8.99543 16.125 8.99543C16.2245 8.99543 16.3198 8.95592 16.3902 8.88559C16.4605 8.81527 16.5 8.71989 16.5 8.62043C16.5 7.55693 15.9893 6.61793 15.2108 5.99993H21.375C21.5895 5.99993 21.75 6.16043 21.75 6.37493V9.37493C21.75 9.58943 21.5895 9.74993 21.375 9.74993H12.75V5.99993ZM3.75 10.4999H12V21.7499H4.5C4.07025 21.7499 3.75 21.4319 3.75 21.0412V10.4999ZM12.75 10.4999H21V21.0412C21 21.4319 20.6798 21.7499 20.25 21.7499H12.75V10.4999Z" fill="#D21E6A"/>
</svg>
