<svg width="16" height="14" viewBox="0 0 16 14" fill="none" xmlns="http://www.w3.org/2000/svg">
<path d="M7.93341 13.6668L10.9667 5.66683H12.3667L15.4001 13.6668H14.0001L13.2834 11.6335H10.0501L9.33342 13.6668H7.93341ZM2.66675 11.6668L1.73341 10.7335L5.10008 7.36683C4.71119 6.97794 4.35841 6.5335 4.04175 6.0335C3.72508 5.5335 3.43341 4.96683 3.16675 4.3335H4.56675C4.78897 4.76683 5.01119 5.14461 5.23342 5.46683C5.45564 5.78905 5.7223 6.11127 6.03341 6.4335C6.40008 6.06683 6.78064 5.55294 7.17508 4.89183C7.56953 4.23072 7.86675 3.60016 8.06675 3.00016H0.666748V1.66683H5.33342V0.333496H6.66675V1.66683H11.3334V3.00016H9.40008C9.16675 3.80016 8.81675 4.62239 8.35008 5.46683C7.88342 6.31127 7.4223 6.95572 6.96675 7.40016L8.56675 9.0335L8.06675 10.4002L6.03341 8.31683L2.66675 11.6668ZM10.4667 10.4668H12.8667L11.6667 7.06683L10.4667 10.4668Z" fill="#0C1015"/>
</svg>
