<svg width="14" height="18" viewBox="0 0 14 18" fill="none" xmlns="http://www.w3.org/2000/svg">
<path d="M6.99992 9.00008C7.45825 9.00008 7.85061 8.83689 8.177 8.5105C8.50339 8.18411 8.66658 7.79175 8.66658 7.33342C8.66658 6.87508 8.50339 6.48272 8.177 6.15633C7.85061 5.82994 7.45825 5.66675 6.99992 5.66675C6.54158 5.66675 6.14922 5.82994 5.82283 6.15633C5.49645 6.48272 5.33325 6.87508 5.33325 7.33342C5.33325 7.79175 5.49645 8.18411 5.82283 8.5105C6.14922 8.83689 6.54158 9.00008 6.99992 9.00008ZM6.99992 15.1251C8.69436 13.5695 9.95131 12.1563 10.7708 10.8855C11.5902 9.61467 11.9999 8.48619 11.9999 7.50008C11.9999 5.98619 11.5173 4.74661 10.552 3.78133C9.58672 2.81605 8.4027 2.33341 6.99992 2.33341C5.59714 2.33341 4.41311 2.81605 3.44784 3.78133C2.48256 4.74661 1.99992 5.98619 1.99992 7.50008C1.99992 8.48619 2.40964 9.61467 3.22909 10.8855C4.04853 12.1563 5.30547 13.5695 6.99992 15.1251ZM6.99992 17.3334C4.76381 15.4306 3.09367 13.6633 1.9895 12.0313C0.885335 10.3994 0.333252 8.88897 0.333252 7.50008C0.333252 5.41675 1.00339 3.75703 2.34367 2.52091C3.68395 1.2848 5.23603 0.666748 6.99992 0.666748C8.76381 0.666748 10.3159 1.2848 11.6562 2.52091C12.9964 3.75703 13.6666 5.41675 13.6666 7.50008C13.6666 8.88897 13.1145 10.3994 12.0103 12.0313C10.9062 13.6633 9.23603 15.4306 6.99992 17.3334Z" fill="#35383C"/>
</svg>
