<svg xmlns="http://www.w3.org/2000/svg" fill-rule="evenodd" clip-rule="evenodd" image-rendering="optimizeQuality" shape-rendering="geometricPrecision" text-rendering="geometricPrecision" viewBox="0 0 47413.32 47413.32" id="MaleCourierpersonholdingbokeh">
  <rect width="47413.32" height="47413.32" fill="none"></rect>
  <path fill="#7d5264" fill-rule="nonzero" d="M31725.57 16598.97c0,0 1199.4,-1591.12 3181.7,-950.62 1985.1,640.64 4722.59,4855.84 4722.59,4855.84l-6146.87 -1570.29 -1757.42 -2334.93z" class="color527d5c svgShape"></path>
  <path fill-rule="nonzero" d="M25209.44 5788.64c0,1668.06 -1184.14,3020.26 -2647.27,3020.26 -1460.37,0 -2645.88,-1352.2 -2645.88,-3020.26 0,-1668.05 1185.51,-3020.11 2645.88,-3020.11 1463.13,0 2647.27,1352.06 2647.27,3020.11z" fill="#000000" class="color000000 svgShape"></path>
  <path fill="#662440" fill-rule="nonzero" d="M22562.18 12408.31c1393.74,0 1014.77,-692.83 1213.27,-1098.87l-316.49 -1973.03 -1799.09 0c0,0 -258.2,1516.18 -316.5,1978.32 145.75,433.95 -174.92,1093.58 1218.81,1093.58z" class="color664624 svgShape"></path>
  <path fill="#813254" fill-rule="nonzero" d="M25031.73 6553.4c0,1899.58 -433.11,3937.98 -2472.35,3937.98 -2039.23,0 -2473.72,-2038.4 -2473.72,-3937.98 0,-1899.61 1074.45,-2694.74 2440.42,-2694.74 1365.98,0 2505.65,795.13 2505.65,2694.74z" class="color815932 svgShape"></path>
  <path fill="#813254" fill-rule="nonzero" d="M20707.58 7199.73c0 389.92-277.65 705.62-620.53 705.62-341.51 0-619.12-315.7-619.12-705.62 0-389.66 277.61-705.61 619.12-705.61 342.88 0 620.53 315.95 620.53 705.61zM25680.02 7199.73c0 389.92-276.24 705.62-619.12 705.62-342.88 0-620.53-315.7-620.53-705.62 0-389.66 277.65-705.61 620.53-705.61 342.88 0 619.12 315.95 619.12 705.61z" class="color815932 svgShape"></path>
  <path fill="#9d4b6e" fill-rule="nonzero" d="m21920.85 7073.66-1188.3 0c-183.22 0-331.76-148.93-331.76-330.92l0-497.25c0-182.13 148.54-331.07 331.76-331.07l1188.3 0c181.84 0 330.38 148.94 330.38 331.07l0 497.25c0 181.99-148.54 330.92-330.38 330.92zM24387.64 7073.66l-1189.68 0c-181.84 0-330.38-148.93-330.38-330.92l0-497.25c0-182.13 148.54-331.07 330.38-331.07l1189.68 0c181.84 0 331.76 148.94 331.76 331.07l0 497.25c0 181.99-149.92 330.92-331.76 330.92z" class="color9d744b svgShape"></path>
  <path fill-rule="nonzero" d="M20732.55 6007.7c-131.87 0-238.77 106.76-238.77 238.08l0 496.53c0 131.47 106.9 238.37 238.77 238.37l1188.3 0c131.87 0 237.36-106.9 237.36-238.37l0-496.53c0-131.32-105.49-238.08-237.36-238.08l-1188.3 0zm1188.3 1159.13-1188.3 0c-234.6 0-424.78-190.46-424.78-424.52l0-496.53c0-233.91 190.18-424.38 424.78-424.38l1188.3 0c233.19 0 424.78 190.47 424.78 424.38l0 496.53c0 234.06-191.59 424.52-424.78 424.52zM23199.35 6007.7c-131.87 0-238.77 106.76-238.77 238.08l0 496.53c0 131.47 106.9 238.37 238.77 238.37l1186.89 0c131.9 0 240.18-106.9 240.18-238.37l0-496.53c0-131.32-108.28-238.08-240.18-238.08l-1186.89 0zm1186.89 1159.13-1186.89 0c-234.6 0-424.78-190.46-424.78-424.52l0-496.53c0-233.91 190.18-424.38 424.78-424.38l1186.89 0c236.01 0 424.81 190.47 424.81 424.38l0 496.53c0 234.06-188.8 424.52-424.81 424.52z" fill="#000000" class="color000000 svgShape"></path>
  <polygon fill-rule="nonzero" points="22345.63 6515.21 22868.46 6515.21 22868.46 6329.13 22345.63 6329.13" fill="#000000" class="color000000 svgShape"></polygon>
  <polygon fill-rule="nonzero" points="25141.42 6520.06 24702.76 6539.78 24734.69 6356.27 25160.84 6344.46" fill="#000000" class="color000000 svgShape"></polygon>
  <polygon fill-rule="nonzero" points="20005.15 6520.06 20442.43 6539.78 20409.13 6356.27 19964.89 6344.46" fill="#000000" class="color000000 svgShape"></polygon>
  <path fill-rule="nonzero" d="M21522.42 6468.57c0 97.19-79.11 176.04-176.3 176.04-97.15 0-176.29-78.85-176.29-176.04 0-97.05 79.14-175.86 176.29-175.86 97.19 0 176.3 78.81 176.3 175.86zM23968.41 6468.57c0 97.19-77.77 176.04-174.92 176.04-97.19 0-176.29-78.85-176.29-176.04 0-97.05 79.1-175.86 176.29-175.86 97.15 0 174.92 78.81 174.92 175.86zM23454.79 9188.45c0 290.67-237.39 528.46-528.89 528.46l-702.43 0c-291.53 0-528.89-237.79-528.89-528.46l0-480.62c0-290.51 528.89-528.34 528.89-528.34l702.43 0c0 0 528.89 237.83 528.89 528.34l0 480.62zm-440.07-1313.79-880.1 0c0 0-838.47 376.91-838.47 837.78l0 941.3c0 460.77 376.22 837.64 838.47 837.64l880.1 0c462.28 0 838.46-376.87 838.46-837.64l0-941.3c0-460.87-838.46-837.78-838.46-837.78z" fill="#000000" class="color000000 svgShape"></path>
  <path fill="#ffffff" fill-rule="nonzero" d="M23231.27 8568.61c0,0 -295.66,480.58 -659.37,480.58 -363.72,0 -659.38,-480.58 -659.38,-480.58l1318.75 0z" class="colorffffff svgShape"></path>
  <path fill="#ac1e5a" fill-rule="nonzero" d="M22560.81 4263.44c1207.69,0 1525.6,629.12 2631.97,1427.61 112.44,-302.76 108.28,-2163.89 -398.4,-2671.29 -506.67,-508.77 -1760.2,-947.57 -2233.57,-947.57 -472,0 -1754.66,452.13 -2264.13,979.79 -487.25,504.61 -478.95,2331.16 -367.88,2634.07 964.79,-824.44 1424.28,-1422.61 2632.01,-1422.61z" class="color1e7dac svgShape"></path>
  <path fill="#8c1849" fill-rule="nonzero" d="M22569.11 4139.47c-4.14,0 -6.93,0.29 -9.72,0.29 -2.75,0 -6.92,-0.29 -9.71,-0.29 -1450.63,0 -2046.19,859.85 -2626.43,1546.58 1045.31,296.25 1288.21,-1291.83 2598.67,-1310.31 0,0 23.59,0.29 37.47,-0.15 12.51,0.44 37.51,0.15 37.51,0.15 1310.42,18.48 1553.36,1606.56 2597.26,1310.31 -580.24,-686.73 -1175.77,-1546.58 -2625.05,-1546.58z" class="color18658c svgShape"></path>
  <path fill="#ac1e5a" fill-rule="nonzero" d="M22775.95 2153.83l-434.49 0c-73.56,0 -134.66,-60.26 -134.66,-133.97l0 0c0,-73.56 61.1,-133.82 134.66,-133.82l434.49 0c73.6,0 134.66,60.26 134.66,133.82l0 0c0,73.71 -61.06,133.97 -134.66,133.97z" class="color1e7dac svgShape"></path>
  <path fill="#813254" fill-rule="nonzero" d="M31166.14 22066.61l1411.78 237.1 462.25 380.35 737.14 755.05c0,0 -1242.44,419.48 -1869.9,82.58 -628.83,-336.9 -941.19,-773.64 -941.19,-773.64l199.92 -681.44z" class="color815932 svgShape"></path>
  <path fill="#ac1e5a" fill-rule="nonzero" d="M30556.69 22548.71l749.65 -1177.18 -2668.1 -3233.48 -1166.05 -5164.18c-104.15,-951.46 -766.28,-1401.24 -1080.03,-1315.43l-838.46 540.96c-313.71,85.92 252.64,2218.03 312.33,2579.93l1243.82 4685.13 3446.84 3084.25z" class="color1e7dac svgShape"></path>
  <polygon fill="#841544" fill-rule="nonzero" points="30882.94 23025.13 31754.71 21690.68 31146.68 21082.94 30176.34 22405.32" class="color155f84 svgShape"></polygon>
  <path fill="#813254" fill-rule="nonzero" d="M13876.32 22066.61l-1411.78 237.1 -463.66 380.35 -737.11 755.05c0,0 1242.41,419.48 1871.28,82.58 628.83,-336.9 939.78,-773.64 939.78,-773.64l-198.51 -681.44z" class="color815932 svgShape"></path>
  <path fill="#ac1e5a" fill-rule="nonzero" d="M14485.73 22548.71l-750.99 -1177.18 2668.07 -3233.48 1166.09 -5164.18c105.48,-951.46 766.28,-1401.24 1079.99,-1315.43l839.84 540.96c313.74,85.92 -254.03,2218.03 -312.33,2579.93l-1243.82 4685.13 -3446.85 3084.25z" class="color1e7dac svgShape"></path>
  <polygon fill="#841544" fill-rule="nonzero" points="14159.52 23025.13 13286.34 21690.68 13894.37 21082.94 14866.12 22405.32" class="color155f84 svgShape"></polygon>
  <path fill="#662440" fill-rule="nonzero" d="M21669.58 45527.29l0 -1344.89 -2148.89 0c0,0 -1675.55,-130.35 -1917.08,262.11 -138.82,226.26 -87.47,1082.78 -87.47,1082.78l4153.44 0z" class="color664624 svgShape"></path>
  <polygon fill="#9d4b6e" fill-rule="nonzero" points="17505.05 45520.91 21675.09 45520.91 21675.09 45179.59 17505.05 45179.59" class="color9d764b svgShape"></polygon>
  <path fill="#662440" fill-rule="nonzero" d="M23443.66 45527.29l0 -1344.89 2147.55 0c0,0 1675.52,-130.35 1917.08,262.11 140.2,226.26 87.44,1082.78 87.44,1082.78l-4152.07 0z" class="color664624 svgShape"></path>
  <polygon fill="#9d4b6e" fill-rule="nonzero" points="23436.74 45520.91 27606.81 45520.91 27606.81 45179.59 23436.74 45179.59" class="color9d764b svgShape"></polygon>
  <path fill="#421327" fill-rule="nonzero" d="M18857.11 23414.39c0,0 -186.01,4756.19 -186.01,6119.95 0,1363.59 558.06,14651.98 558.06,14651.98l2440.42 0 782.95 -15901.63 217.93 0 773.2 15901.63 2437.67 0c0,0 558.06,-13186.78 558.06,-14590.92 0,-1404.42 -186.04,-6181.01 -186.04,-6181.01l-7396.24 0z" class="color132e42 svgShape"></path>
  <path fill="#ffffff" fill-rule="nonzero" d="M23967 14739.22l-2730.54 0 0 -3182.28c0,0 466.41,671.74 1313.21,671.74 846.8,0 1417.33,-795.56 1417.33,-795.56l0 3306.1z" class="colorffffff svgShape"></path>
  <polygon fill="#662440" fill-rule="nonzero" points="26260.29 23414.39 18857.11 23414.39 18822.43 24353.19 26289.43 24353.19" class="color664624 svgShape"></polygon>
  <polygon fill="#421327" fill-rule="nonzero" points="24182.18 24353.19 24514.58 24353.19 24514.58 23414.39 24182.18 23414.39" class="color132e42 svgShape"></polygon>
  <polygon fill="#421327" fill-rule="nonzero" points="20607.64 24353.19 20940.01 24353.19 20940.01 23414.39 20607.64 23414.39" class="color132e42 svgShape"></polygon>
  <path fill="#ac1e5a" fill-rule="nonzero" d="M26518.49 11648.01c-251.28,-83.28 -2912.42,-340.38 -2912.42,-340.38l-1085.53 3379.81 -1059.19 -3379.81c0,0 -2652.81,257.1 -2904.08,340.38 297.07,279.32 335.92,989.21 299.83,1820.47 -43.02,1022.8 -18.05,9945.91 -18.05,9945.91l7403.2 0c0,0 19.42,-8923.11 -25.01,-9945.91 -36.09,-831.26 4.17,-1541.15 301.25,-1820.47z" class="color1e7dac svgShape"></path>
  <polygon fill="#700f38" fill-rule="nonzero" points="22538.59 14687.44 21411.39 10868.28 21525.21 12863.24" class="color0f5070 svgShape"></polygon>
  <polygon fill="#841544" fill-rule="nonzero" points="20403.55 13418.11 21525.21 12863.24 21411.39 10868.28 20546.54 11401.74" class="color155f84 svgShape"></polygon>
  <polygon fill="#700f38" fill-rule="nonzero" points="22538.59 14687.44 23665.8 10868.28 23550.56 12863.24" class="color0f5070 svgShape"></polygon>
  <polygon fill="#841544" fill-rule="nonzero" points="24672.22 13418.11 23550.56 12863.24 23665.8 10868.28 24530.6 11401.74" class="color155f84 svgShape"></polygon>
  <polygon fill="#841544" fill-rule="nonzero" points="21833.37 15546.3 20653.44 15809.79 19472.1 15546.3 19472.1 14879.97 21833.37 14879.97" class="color155f84 svgShape"></polygon>
  <path fill="#ffffff" fill-rule="nonzero" d="M20778.35 15468.86c0,68.57 -56.89,123.97 -124.91,123.97 -68.02,0 -123.57,-55.4 -123.57,-123.97 0,-68.45 55.55,-123.96 123.57,-123.96 68.02,0 124.91,55.51 124.91,123.96z" class="colorffffff svgShape"></path>
  <polygon fill="#ffffff" fill-rule="nonzero" points="25593.96 15995.25 23231.27 15995.25 23231.27 14708.96 25593.96 14708.96" class="colorffffff svgShape"></polygon>
  <polygon fill="#bdbdbd" fill-rule="nonzero" points="24293.24 14710.08 24293.24 14541.69 24204.39 14710.08" class="colorbdbdbd svgShape"></polygon>
  <polygon fill="#d9d9d9" fill-rule="nonzero" points="24293.24 14878.59 24529.77 14878.59 24529.77 14541.58 24293.24 14541.58" class="colord9d9d9 svgShape"></polygon>
  <polygon fill="#d9d9d9" fill-rule="nonzero" points="24204.39 15281.59 25372.83 15281.59 25372.83 15172.91 24204.39 15172.91" class="colord9d9d9 svgShape"></polygon>
  <polygon fill="#d9d9d9" fill-rule="nonzero" points="24204.39 15638.64 25372.83 15638.64 25372.83 15529.85 24204.39 15529.85" class="colord9d9d9 svgShape"></polygon>
  <polygon fill="#d9d9d9" fill-rule="nonzero" points="23399.27 15781.59 24112.6 15781.59 24112.6 15033.61 23399.27 15033.61" class="colord9d9d9 svgShape"></polygon>
  <polygon fill="#6f0a35" fill-rule="nonzero" points="18925.16 42666.26 21744.56 42666.26 21669.58 44186.31 18857.11 44186.31" class="color0a4f6f svgShape"></polygon>
  <polygon fill="#6f0a35" fill-rule="nonzero" points="23368.72 42666.26 26163.1 42666.26 26246.41 44186.31 23436.74 44186.31" class="color0a4f6f svgShape"></polygon>
  <path fill="#6f0a35" fill-rule="nonzero" d="M26371.32 26694.39c-36.09-4.31-907.86-117.45-1421.49-957.03-398.39-649.82-359.51-1354.31-356.76-1384.17l258.2 0c0 6.56-45.81 674.27 309.57 1254.94 449.79 734.21 1193.85 836.08 1202.19 837.2l8.29 249.06zM18743.28 26694.39c34.72-4.31 906.49-117.45 1421.5-957.03 397.02-649.82 358.17-1354.31 356.76-1384.17l-259.57 0c1.37 6.56 47.18 674.27-308.17 1254.94-449.78 734.21-1195.22 836.08-1203.56 837.2l-6.96 249.06zM22764.86 27113.19c-197.13 0-533.05-31.38-780.16-218.22-283.2-215.44-247.1-1853.09-217.93-2541.78l242.9 2.25c-41.64 1011.28-2.75 2207.73 127.74 2343.92 198.51 150.35 491.41 167.85 651.04 165.75l0-2509.67 248.48 0 0 2736.91-109.65 12.94c-8.34.83-70.81 7.9-162.42 7.9z" class="color0a4f6f svgShape"></path>
  <polygon fill="#d692af" fill-rule="nonzero" points="22142.95 24447.88 22361.54 24447.88 22361.54 23321.88 22142.95 23321.88" class="colord6b792 svgShape"></polygon>
  <polygon fill="#d692af" fill-rule="nonzero" points="22330.37 24447.88 22988.7 24447.88 22988.7 24355.36 22330.37 24355.36" class="colord6b792 svgShape"></polygon>
  <polygon fill="#9d4b6e" fill-rule="nonzero" points="22205.42 23931.89 22583.85 23931.89 22583.85 23826.69 22205.42 23826.69" class="color9d764b svgShape"></polygon>
  <polygon fill="#d692af" fill-rule="nonzero" points="22330.37 23414.39 22988.7 23414.39 22988.7 23321.95 22330.37 23321.95" class="colord6b792 svgShape"></polygon>
  <polygon fill="#bdbdbd" fill-rule="nonzero" points="9563.25 19982.4 9171.78 19839.26 8666.48 20098.29 8692.86 20410.22 9214.83 21065.43 10076.88 20623.3" class="colorbdbdbd svgShape"></polygon>
  <path fill="#421327" fill-rule="nonzero" d="M13870.78 25144.76l-3284.43 1684.98c-172.17,88.82 -384.56,20.55 -473.37,-152.56l-2472.35 -4818.55c-88.85,-173.11 -20.84,-385.35 152.67,-474.06l3284.47 -1684.98c172.12,-88.82 384.51,-20.4 473.37,152.56l2472.34 4818.81c88.82,172.96 19.43,385.09 -152.7,473.8z" class="color132e42 svgShape"></path>
  <polygon fill="#fde7f0" fill-rule="nonzero" points="13731.95 24837 10418.35 26537.37 7932.12 21692.2 11245.73 19991.97" class="colore7f6fd svgShape"></polygon>
  <polygon fill="#d9d9d9" fill-rule="nonzero" points="10096.31 20613.44 9212.04 21066.41 8989.94 21339.75 9146.77 21644.87 10583.56 20907.62 10426.68 20602.35" class="colord9d9d9 svgShape"></polygon>
  <polygon fill="#d9d9d9" fill-rule="nonzero" points="9541.04 19466.52 9032.95 19726.82 8939.96 20168.81 9214.83 21065.29 10081.05 20620.8 9797.85 19707.79" class="colord9d9d9 svgShape"></polygon>
  <polygon fill="#f9a5c9" fill-rule="nonzero" points="11428.94 21274.38 10300.36 21853.38 10232.34 21721.91 11360.93 21142.91" class="colora5dff9 svgShape"></polygon>
  <polygon fill="#f9a5c9" fill-rule="nonzero" points="11746.86 21892.96 10616.86 22471.96 10550.25 22340.49 11678.84 21761.49" class="colora5dff9 svgShape"></polygon>
  <polygon fill="#f9a5c9" fill-rule="nonzero" points="12045.31 22476.13 10916.73 23054.99 10850.08 22923.52 11977.29 22344.66" class="colora5dff9 svgShape"></polygon>
  <polygon fill="#f9a5c9" fill-rule="nonzero" points="12360.43 23091.91 11233.22 23670.92 11165.21 23539.59 12295.2 22960.59" class="colora5dff9 svgShape"></polygon>
  <polygon fill="#f9a5c9" fill-rule="nonzero" points="12639.46 23633.99 11510.88 24212.99 11442.86 24081.55 12571.44 23502.52" class="colora5dff9 svgShape"></polygon>
  <polygon fill="#f9a5c9" fill-rule="nonzero" points="12968.46 24274.48 11839.88 24853.38 11771.86 24722.05 12900.44 24143.05" class="colora5dff9 svgShape"></polygon>
  <path fill="#f9a5c9" fill-rule="nonzero" d="m9198.16 23117.17 838.46-429.78-317.91-618.57-837.05 429.63 316.5 618.72zm1036.97-365.78-1100.82 564.58-452.57-881.52 1100.82-564.4 452.57 881.34zM9826.99 24343.33l838.46-429.63-317.87-618.58-837.09 429.67 316.5 618.54zm1036.97-365.78-1100.82 564.73-451.16-881.48 1099.45-564.58 452.53 881.33zM10436.4 25528.74l837.08-429.67-317.87-618.72-837.09 429.81 317.88 618.58zm1035.59-365.82-1099.44 564.72-452.54-881.48 1099.45-564.72 452.53 881.48z" class="colora5dff9 svgShape"></path>
  <polygon fill="#ac1e5a" fill-rule="nonzero" points="9593.8 22806.65 9102.38 22653.11 9146.77 22512.08 9439.68 22603.83 9414.71 21727.89 9561.87 21723.58" class="colorac1e23 svgShape"></polygon>
  <polygon fill="#ac1e5a" fill-rule="nonzero" points="10222.63 24031.58 9731.21 23878.04 9775.64 23737.11 10067.17 23828.61 10042.17 22952.94 10190.71 22948.52" class="colorac1e23 svgShape"></polygon>
  <polygon fill="#ac1e5a" fill-rule="nonzero" points="10833.42 25223.33 10342 25069.79 10387.84 24928.9 10679.33 25020.36 10652.95 24144.71 10801.49 24140.26" class="colorac1e23 svgShape"></polygon>
  <path fill="#662440" fill-rule="nonzero" d="M11739.9 22380.9c0,0 136.07,147.26 481.71,94.39 358.17,-54.71 391.47,-192.42 391.47,-192.42 0,0 259.61,228.37 542.77,236.56 284.57,8.34 498.37,-266.67 498.37,-266.67l-269.32 -412.42 -1142.46 154.37 -502.54 386.19z" class="color664624 svgShape"></path>
  <path fill="#b25b80" fill-rule="nonzero" d="M31756.09 16536.93l362.34 5971.67 -3244.21 3729.75c0,0 -155.46,185.9 588.61,991.86 744.06,805.85 1334.05,371.91 1334.05,371.91l2189.15 -4266.98 6611.91 -2861.76c0,0 -3052.62,-1363.76 -4740.64,-1642.9 -2376.57,-392.6 -3101.21,-2293.55 -3101.21,-2293.55z" class="color5bb268 svgShape"></path>
  <path fill="#662440" fill-rule="nonzero" d="M33302.53 22380.9c0,0 -136.04,147.26 -481.71,94.39 -358.14,-54.71 -391.44,-192.42 -391.44,-192.42 0,0 -259.61,228.37 -544.18,236.56 -283.2,8.34 -498.34,-266.67 -498.34,-266.67l270.7 -412.42 1142.46 154.37 502.51 386.19z" class="color664624 svgShape"></path>
  <path fill="#7d5264" fill-rule="nonzero" d="M38383.29 17445.77c0,0 79.11,151.73 192.97,129.37 112.4,-22.36 81.89,-241.13 81.89,-241.13l-308.2 -207.82c0,0 -179.05,-96.32 -192.93,41.09 -13.88,137.31 226.27,278.49 226.27,278.49z" class="color527d5c svgShape"></path>
  <path fill="#ff2280" fill-rule="nonzero" d="M38658.15 17334.01l-308.2 -207.82c0,0 -162.42,-267.9 93.02,-531.24 256.82,-263.2 719.07,-308.06 719.07,-308.06 0,0 192.96,70.12 73.59,425.07 -120.78,354.84 -577.48,622.05 -577.48,622.05z" class="colorcc7293 svgShape"></path>
  <path fill="#7d5264" fill-rule="nonzero" d="M38269.47 17243.49c0,0 -229.06,-107.7 -131.91,-339.8 95.82,-231.99 477.54,-440.9 477.54,-440.9l-111.03 433.11 -234.6 347.59z" class="color527d5c svgShape"></path>
  <path fill="#7d5264" fill-rule="nonzero" d="M37461.51 17713.96c113.86 31.78 538.64-269.31 678.84-363.42 143-94.11 192.97-387.17 192.97-387.17l-137.45 204.6c0 0-120.78 47.51-241.52 154.23-122.16 106.76-492.84 391.76-492.84 391.76zM35121.04 15596.86c0 0 170.75 1.66 205.46-109.55 33.31-111.32-176.29-186.15-176.29-186.15l-327.63 176c0 0-169.33 113.28-54.13 189.23 116.61 75.92 352.59-69.53 352.59-69.53z" class="color527d5c svgShape"></path>
  <path fill="#ff2280" fill-rule="nonzero" d="M35150.21 15301.16l-327.63 176c0,0 -312.33,18.48 -426.15,-331.06 -112.45,-349.55 65.23,-780.02 65.23,-780.02 0,0 152.7,-137.45 409.52,134.52 258.19,272.07 279.03,800.56 279.03,800.56z" class="colorcc7293 svgShape"></path>
  <path fill="#7d5264" fill-rule="nonzero" d="M34890.6 15601.86c0,0 -204.05,153.5 -363.68,-40.41 -159.66,-193.94 -166.58,-629.26 -166.58,-629.26l331.75 300.4 198.51 369.27z" class="color527d5c svgShape"></path>
  <path fill="#7d5264" fill-rule="nonzero" d="M34926.69 16536.5c81.94-85.52 12.51-601.22-4.16-770.02-15.26-168.94-251.24-351.07-251.24-351.07l116.61 217.39c0 0-13.87 128.83 22.22 285.55 38.85 156.84 116.57 618.15 116.57 618.15zM32314.15 16644.77c-431.74-165.46-859.27-216.41-985.59 284.87-126.33 501.13 712.1 348.17 712.1 348.17 0 0-512.22-137.31-791.25 148.79-280.4 285.99-316.5 520.3-316.5 520.3 0 0 245.69-85.23 419.24-57.76 174.91 27.65 340.09-86.07 340.09-86.07 0 0-531.68-133.24-433.12 198.66 99.95 331.9 764.91 112.84 764.91 112.84 0 0-558.06 57.22-297.08 238.92 262.36 181.87 1783.8 5.83 1783.8 5.83l177.71-682.14c0 0-941.2-867.05-1374.31-1032.41zM37982.1 20749.08c305.41 348.57 658.01 593.03 1005.05 209.05 347.05-384.22-466.45-640.64-466.45-640.64 0 0 388.69 360.78 769.07 238.48 381.73-122.16 521.93-312.88 521.93-312.88 0 0-255.4-38.88-397.02-144.8-141.58-105.92-340.09-82.73-340.09-82.73 0 0 406.74 366.36 474.75 26.67 68.02-339.55-621.91-456.74-621.91-456.74 0 0 519.22 210.03 373.43-72.87-147.12-282.91-1574.2-837.89-1574.2-837.89l-476.12 519.43c0 0 426.15 1206.35 731.56 1554.92z" class="color527d5c svgShape"></path>
  <path fill="#e098b7" fill-rule="nonzero" d="M31965.72 16606.76c-190.17,-558.89 274.86,-1434.28 1002.26,-1682.22 726.02,-247.94 1497.84,117.16 1679.72,917.17 129.08,575.96 -5.58,1461.07 -732.98,1709 -728.81,247.94 -1757.45,-384.95 -1949,-943.95z" class="colore098b2 svgShape"></path>
  <path fill="#9f6e83" fill-rule="nonzero" d="M33903.63 16628.25c0,0 2.76,166.44 -570.56,200.18 -574.69,33.59 -720.47,-280.41 -720.47,-280.41l565.01 79.14c0,0 -199.92,-164.23 116.58,-208.65 316.54,-44.43 233.23,216.26 233.23,216.26l376.21 -6.52z" class="color9f726e svgShape"></path>
  <path fill="#ff2280" fill-rule="nonzero" d="M34207.63 16502.07c0,0 154.08,-368.28 -510.84,-475.04 -664.96,-106.86 -1099.45,226.85 -1099.45,226.85 0,0 551.1,-503.38 1192.44,-406.04 699.64,106.61 417.85,654.23 417.85,654.23z" class="colorcc7293 svgShape"></path>
  <path fill="#ff2280" fill-rule="nonzero" d="M33968.86 15646.68c0 0-204.05-445.07-975.88-142.85-710.76 278.2-812.08 1027.52-812.08 1027.52 0 0 88.82-1003.35 782.91-1244.91 909.28-316.5 1005.05 360.24 1005.05 360.24zM32870.83 17056.65c0 0 126.32 169.63 703.8 91.07 459.46-62.48 537.23-392.86 537.23-392.86 0 0-156.88 511.82-544.18 544.87-387.31 33.16-696.85-243.08-696.85-243.08z" class="colorcc7293 svgShape"></path>
  <path fill="#e098b7" fill-rule="nonzero" d="M34858.68 16686.41c45.8,-628.29 867.63,-1293.21 1683.89,-1232.69 819,60.66 1421.49,740.73 1265.99,1601.55 -112.44,619.81 -614.95,1431.9 -1432.58,1371.23 -819.04,-60.66 -1565.86,-1112.06 -1517.3,-1740.09z" class="colore098b2 svgShape"></path>
  <path fill="#9f6e83" fill-rule="nonzero" d="M36749.41 17516.54c0,0 -65.26,165.35 -642.75,-41.49 -577.48,-206.99 -588.6,-576.11 -588.6,-576.11l520.59 313.75c0,0 -129.12,-244.89 201.3,-156.18 330.37,88.7 138.79,309.57 138.79,309.57l370.67 150.46z" class="color9f726e svgShape"></path>
  <path fill="#ff2280" fill-rule="nonzero" d="M37102 17520.02c0,0 305.38,-296.64 -302.62,-679.24 -606.65,-382.45 -1174.42,-236.66 -1174.42,-236.66 0,0 752.4,-263.78 1339.59,99.25 642.75,397.27 137.45,816.65 137.45,816.65z" class="colorcc7293 svgShape"></path>
  <path fill="#ff2280" fill-rule="nonzero" d="M37224.16 16580.63c0 0-13.88-521.82-898.15-547.76-813.5-23.88-1225.77 669.09-1225.77 669.09 0 0 506.67-947.44 1289.62-894.38 1023.1 69.25 834.3 773.05 834.3 773.05zM35558.32 17506.14c0 0 52.76 218.66 652.45 382.74 476.17 130.89 691.31-161.04 691.31-161.04 0 0-367.85 436.99-760.7 308.02-394.27-129.08-583.06-529.72-583.06-529.72z" class="colorcc7293 svgShape"></path>
  <path fill="#e098b7" fill-rule="nonzero" d="M37518.44 17774.63c290.12,-405.36 1120.25,-516.14 1647.76,-137.85 527.51,378.28 653.84,1086.51 194.35,1604.16 -331.76,372.6 -1006.43,714.39 -1533.94,336.11 -527.51,-378.29 -598.28,-1397.07 -308.17,-1802.42z" class="colore098b2 svgShape"></path>
  <path fill="#9f6e83" fill-rule="nonzero" d="M38454.06 19116.18c0,0 -111.03,85.08 -416.44,-293.06 -305.41,-378.13 -161.04,-632.6 -161.04,-632.6l223.51 427.14c0,0 13.88,-218.48 199.89,-22.62 186.04,195.87 -33.3,266.53 -33.3,266.53l187.38 254.61z" class="color9f726e svgShape"></path>
  <path fill="#ff2280" fill-rule="nonzero" d="M38690.08 19263.74c0,0 330.38,-74.43 77.73,-583.61 -254.03,-509.17 -696.85,-644.27 -696.85,-644.27 0,0 617.7,131.47 863.43,619.3 272.07,533.75 -244.31,608.58 -244.31,608.58z" class="colorcc7293 svgShape"></path>
  <path fill="#ff2280" fill-rule="nonzero" d="M39160.66 18679.15c0 0 206.84-358.42-380.35-740.44-540.01-351.9-1104.99-53.45-1104.99-53.45 0 0 734.35-431.45 1239.65-73.02 663.54 469.49 245.69 866.91 245.69 866.91zM37654.48 18617.95c0 0-55.52 169.23 281.82 527.36 267.9 285.41 534.43 176.44 534.43 176.44 0 0-428.94 143.94-641.33-105.63-212.39-249.6-174.92-598.17-174.92-598.17z" class="colorcc7293 svgShape"></path>
  <path fill="#e098b7" fill-rule="nonzero" d="M37265.8 18829.65c319.28,382.99 217.93,1213.52 -280.41,1629.71 -498.38,416.19 -1216.06,361.76 -1601.96,-213.77 -277.65,-414.23 -438.69,-1152.89 58.31,-1569.08 499.72,-416.16 1503.39,-229.71 1824.06,153.14z" class="colore098b2 svgShape"></path>
  <path fill="#9f6e83" fill-rule="nonzero" d="M35730.48 19400.03c0,0 -52.76,-129.63 388.69,-330.38 442.82,-200.58 653.83,2.5 653.83,2.5l-470.62 109.11c0,0 208.26,68.6 -27.76,199.63 -235.97,131.04 -249.85,-99.69 -249.85,-99.69l-294.29 118.83z" class="color9f726e svgShape"></path>
  <path fill="#ff2280" fill-rule="nonzero" d="M35529.18 19592.16c0,0 -9.71,337.19 545.56,219.89 556.64,-117.56 799.58,-512.37 799.58,-512.37 0,0 -283.2,563.75 -817.63,681.16 -584.44,128.57 -527.51,-388.68 -527.51,-388.68z" class="colorcc7293 svgShape"></path>
  <path fill="#ff2280" fill-rule="nonzero" d="M35977.55 20193.81c0 0 295.7 288.89 812.08-183.4 476.17-434.78 329-1056.11 329-1056.11 0 0 233.23 817.78-240.14 1218.82-620.5 525.15-900.94 20.69-900.94 20.69zM36413.45 18749.82c0 0-148.54-95.78-580.27 141.32-344.26 188.66-304 472.69-304 472.69 0 0-33.3-450.91 262.36-594.3 295.7-143.68 621.91-19.71 621.91-19.71z" class="colorcc7293 svgShape"></path>
  <path fill="#e098b7" fill-rule="nonzero" d="M35357.05 19265.66c-195.75,458.95 -981.46,747.83 -1579.74,493.66 -596.94,-254.2 -874.56,-917.75 -538.63,-1523.28 242.93,-435.87 827.37,-916.34 1424.28,-662.13 596.9,254.02 888.43,1232.83 694.09,1691.75z" class="colore098b2 svgShape"></path>
  <path fill="#9f6e83" fill-rule="nonzero" d="M34149.33 18160.52c0,0 91.6,-107.44 471.99,195.21 380.35,302.33 294.29,582.2 294.29,582.2l-310.96 -368.29c0,0 34.72,216.41 -190.17,65.81 -223.52,-150.49 -25.01,-267.65 -25.01,-267.65l-240.14 -207.28z" class="color9f726e svgShape"></path>
  <path fill="#ff2280" fill-rule="nonzero" d="M33886.97 18068.08c0,0 -305.41,144.37 52.76,586.1 358.13,441.85 820.38,477.11 820.38,477.11 0,0 -630.21,6.12 -978.67,-416.19 -380.35,-461.85 105.53,-647.02 105.53,-647.02z" class="colorcc7293 svgShape"></path>
  <path fill="#ff2280" fill-rule="nonzero" d="M33555.17 18740.94c0 0-122.15 394.81 533.06 639.81 605.28 225.58 1091.11-188.65 1091.11-188.65 0 0-621.87 580.81-1195.22 341.5-749.61-313.46-428.95-792.66-428.95-792.66zM35039.14 18472.2c0 0 18.05-177.17-390.06-453.26-323.46-219.75-559.44-55.66-559.44-55.66 0 0 387.31-233.91 649.67-36.64 262.36 197.1 299.83 545.56 299.83 545.56z" class="colorcc7293 svgShape"></path>
</svg>
