<svg width="96" height="16" viewBox="0 0 96 16" fill="none" xmlns="http://www.w3.org/2000/svg">
<g clip-path="url(#clip0_24_4514)">
<path d="M8.00067 0.419922L9.93601 5.98659L15.8287 6.10726L11.132 9.66792L12.8387 15.3093L8.00001 11.9426L3.16267 15.3093L4.86934 9.66792L0.17334 6.10726L6.06601 5.98726L8.00067 0.419922Z" fill="#5F5F5F"/>
</g>
<g clip-path="url(#clip1_24_4514)">
<path d="M24.0007 0.419922L25.936 5.98659L31.8287 6.10726L27.132 9.66792L28.8387 15.3093L24 11.9426L19.1627 15.3093L20.8693 9.66792L16.1733 6.10726L22.066 5.98726L24.0007 0.419922Z" fill="#5F5F5F"/>
</g>
<g clip-path="url(#clip2_24_4514)">
<path d="M40.0007 0.419922L41.936 5.98659L47.8287 6.10726L43.132 9.66792L44.8387 15.3093L40 11.9426L35.1627 15.3093L36.8693 9.66792L32.1733 6.10726L38.066 5.98726L40.0007 0.419922Z" fill="#5F5F5F"/>
</g>
<g clip-path="url(#clip3_24_4514)">
<path d="M56.0007 0.419922L57.936 5.98659L63.8287 6.10726L59.132 9.66792L60.8387 15.3093L56 11.9426L51.1627 15.3093L52.8693 9.66792L48.1733 6.10726L54.066 5.98726L56.0007 0.419922Z" fill="#5F5F5F"/>
</g>
<g clip-path="url(#clip4_24_4514)">
<path d="M72.0007 0.419922L73.936 5.98659L79.8287 6.10726L75.132 9.66792L76.8387 15.3093L72 11.9426L67.1627 15.3093L68.8693 9.66792L64.1733 6.10726L70.066 5.98726L72.0007 0.419922Z" fill="#5F5F5F"/>
</g>
<g clip-path="url(#clip5_24_4514)">
<path d="M88.0007 0.419922L89.936 5.98659L95.8287 6.10726L91.132 9.66792L92.8387 15.3093L88 11.9426L83.1627 15.3093L84.8693 9.66792L80.1733 6.10726L86.066 5.98726L88.0007 0.419922Z" fill="#5F5F5F"/>
</g>
<defs>
<clipPath id="clip0_24_4514">
<rect width="16" height="16" fill="white"/>
</clipPath>
<clipPath id="clip1_24_4514">
<rect width="16" height="16" fill="white" transform="translate(16)"/>
</clipPath>
<clipPath id="clip2_24_4514">
<rect width="16" height="16" fill="white" transform="translate(32)"/>
</clipPath>
<clipPath id="clip3_24_4514">
<rect width="16" height="16" fill="white" transform="translate(48)"/>
</clipPath>
<clipPath id="clip4_24_4514">
<rect width="16" height="16" fill="white" transform="translate(64)"/>
</clipPath>
<clipPath id="clip5_24_4514">
<rect width="16" height="16" fill="white" transform="translate(80)"/>
</clipPath>
</defs>
</svg>
