<svg width="25" height="25" viewBox="0 0 25 25" fill="none" xmlns="http://www.w3.org/2000/svg">
<path d="M12.5 12.5C11.4 12.5 10.4583 12.1083 9.675 11.325C8.89167 10.5417 8.5 9.6 8.5 8.5C8.5 7.4 8.89167 6.45833 9.675 5.675C10.4583 4.89167 11.4 4.5 12.5 4.5C13.6 4.5 14.5417 4.89167 15.325 5.675C16.1083 6.45833 16.5 7.4 16.5 8.5C16.5 9.6 16.1083 10.5417 15.325 11.325C14.5417 12.1083 13.6 12.5 12.5 12.5ZM4.5 20.5V17.7C4.5 17.1333 4.64583 16.6125 4.9375 16.1375C5.22917 15.6625 5.61667 15.3 6.1 15.05C7.13333 14.5333 8.18333 14.1458 9.25 13.8875C10.3167 13.6292 11.4 13.5 12.5 13.5C13.6 13.5 14.6833 13.6292 15.75 13.8875C16.8167 14.1458 17.8667 14.5333 18.9 15.05C19.3833 15.3 19.7708 15.6625 20.0625 16.1375C20.3542 16.6125 20.5 17.1333 20.5 17.7V20.5H4.5ZM6.5 18.5H18.5V17.7C18.5 17.5167 18.4542 17.35 18.3625 17.2C18.2708 17.05 18.15 16.9333 18 16.85C17.1 16.4 16.1917 16.0625 15.275 15.8375C14.3583 15.6125 13.4333 15.5 12.5 15.5C11.5667 15.5 10.6417 15.6125 9.725 15.8375C8.80833 16.0625 7.9 16.4 7 16.85C6.85 16.9333 6.72917 17.05 6.6375 17.2C6.54583 17.35 6.5 17.5167 6.5 17.7V18.5ZM12.5 10.5C13.05 10.5 13.5208 10.3042 13.9125 9.9125C14.3042 9.52083 14.5 9.05 14.5 8.5C14.5 7.95 14.3042 7.47917 13.9125 7.0875C13.5208 6.69583 13.05 6.5 12.5 6.5C11.95 6.5 11.4792 6.69583 11.0875 7.0875C10.6958 7.47917 10.5 7.95 10.5 8.5C10.5 9.05 10.6958 9.52083 11.0875 9.9125C11.4792 10.3042 11.95 10.5 12.5 10.5Z" fill="#7D7D7D"/>
</svg>
